<svg width="438" height="266" viewBox="0 0 438 266" fill="none" xmlns="http://www.w3.org/2000/svg">
<path d="M20.8979 107.742C21.6876 123.101 31.5754 141.981 42.0779 159.271C43.7509 161.993 45.5373 164.664 47.445 167.271C56.7361 180.048 68.3778 190.734 81.2423 201.213C90.4549 208.604 102.793 214.816 114.694 220.916C122.059 224.653 129.593 228.204 137.238 231.665C151.19 238.047 167.551 240.851 184.356 243.141C188.836 243.747 193.357 244.261 197.896 244.701C214.657 246.302 231.647 247.038 248.471 246.754C261.351 246.521 274.113 245.527 286.736 243.39C291.427 242.601 296.105 241.661 300.771 240.586C324.774 235.079 348.117 226.836 370.029 215.309C370.374 215.129 370.719 214.948 371.063 214.766C388.712 205.341 404.712 192.356 419.005 177.837C419.059 177.782 419.112 177.727 419.166 177.672C425.326 171.376 430.451 164.018 432.823 155.512C433.528 153.042 434.011 150.49 434.36 147.901L434.363 148.144C434.105 144.93 432.804 141.839 430.703 139.284C430.265 138.746 429.826 138.207 429.39 137.663C428.799 136.924 428.322 136.139 428.069 135.486C427.815 134.833 427.801 134.368 428.025 134.19C428.251 134.014 428.699 134.134 429.281 134.507C429.862 134.88 430.531 135.474 431.161 136.156C431.622 136.657 432.089 137.156 432.561 137.66C435.112 140.351 436.959 143.962 437.514 147.749L437.519 148.216C437.339 150.981 437.003 153.804 436.398 156.588C434.747 164.421 430.886 171.696 426.103 177.954C424.684 178.135 423.225 178.673 421.384 180.011C421.035 180.262 420.669 180.547 420.284 180.871C419.075 181.886 417.446 183.49 416.429 184.853C415.519 186.076 414.964 187.135 414.435 188.138C413.878 189.189 413.344 190.184 412.427 191.24C410.872 193.029 409.579 194.938 408.187 196.927C407.682 197.648 407.156 198.388 406.606 199.128C401.279 204.221 395.696 209.068 389.806 213.592C387.405 215.164 385.17 216.561 383.322 217.827C381.664 218.963 380.24 220.151 378.824 221.37C377.853 222 376.873 222.621 375.887 223.231C375.546 223.441 375.204 223.651 374.861 223.859C368.917 227.471 362.832 230.891 356.597 234.078C351.253 236.253 345.61 238.427 338.284 241.152C335.121 242.325 331.942 243.32 328.874 244.228C324.355 245.565 320.072 246.715 316.412 248.01C313.963 248.877 311.296 249.485 308.633 250.057C306.919 250.425 305.224 250.774 303.555 251.179C301.744 251.619 299.995 252.112 298.37 252.746C296.411 253.509 294.617 254.27 292.943 254.959C290.283 256.055 287.925 256.971 285.715 257.407C281.565 258.224 278.001 259.143 274.838 259.904C271.038 260.817 267.82 261.502 264.936 261.425C264.496 261.414 263.999 261.389 263.435 261.359C260.468 261.198 255.789 260.909 249.145 261.582C249.119 261.585 249.092 261.587 249.066 261.59C246.687 261.832 244.464 262.26 242.277 262.663C239.097 263.25 235.992 263.784 232.666 263.584C232.17 263.554 231.652 263.42 231.18 263.297C230.578 263.14 230.056 263.002 229.746 263.121C228.836 263.47 227.389 263.851 225.813 264.256C224.656 264.554 223.426 264.865 222.29 265.189C213.654 265.229 205.016 265.035 196.353 264.569C192.381 264.355 188.406 264.082 184.418 263.735C183.66 263.45 182.883 263.169 182.11 262.896C180.876 262.459 179.619 262.046 178.316 261.665C175.535 260.852 171.878 260.251 167.141 259.34C163.659 258.665 159.579 257.823 154.874 256.495C146.162 254.085 137.131 251.338 131.367 249.233C130.865 249.055 130.361 248.873 129.853 248.685C129.163 248.432 128.466 248.177 127.745 247.913C123.08 246.182 117.242 244.093 106.372 239.274C96.0995 234.693 87.5408 230.059 81.1982 226.105C77.9679 224.099 75.2852 222.262 73.2342 220.808C71.5407 219.607 69.674 218.202 67.7386 216.563C65.9364 215.045 63.9882 213.397 62.0506 211.721C56.1756 206.678 50.3946 201.173 47.157 198.016C45.9917 196.891 44.7859 195.721 43.4848 194.418C39.9081 190.822 35.6315 186.354 30.4462 179.59C27.8835 176.232 25.932 173.369 24.284 170.755C22.5259 167.959 21.0794 165.483 19.655 162.908C18.5578 160.924 17.9031 158.987 17.2405 156.972C16.3049 154.112 15.3613 151.142 13.1869 147.564C12.6793 146.726 12.0948 145.855 11.4884 144.932C10.3745 143.237 9.1917 141.374 8.31077 139.271C8.00741 138.546 7.82095 137.849 7.64863 137.178C7.46064 136.442 7.2731 135.701 6.94955 134.929C5.73271 132.03 4.59641 129.129 3.69548 126.465C2.52637 123.031 1.76461 119.985 1.48045 118.033C1.01638 114.885 0.415977 111.387 0.226648 107.64C0.20843 107.327 0.190567 107.013 0.173364 106.699C0.0275021 104.038 -0.0699596 101.315 0.0628977 98.655C0.473459 91.1004 0.983592 80.2345 4.88504 68.8373C6.3807 64.558 8.42347 61.125 11.5104 57.1882C13.4476 54.7486 15.8225 52.1135 19.015 49.1956C19.1681 49.0561 19.3184 48.9172 19.4663 48.779C20.8454 47.4991 21.8725 46.203 22.8361 45.0027C23.8082 43.7927 24.7213 42.6743 25.8764 41.762C26.8985 40.9551 27.787 40.7135 28.6303 40.4863C29.5723 40.2315 30.4473 40.0035 31.4206 39.0401C31.9348 38.5312 32.465 37.7921 33.1018 36.9188C33.3535 36.5737 33.6246 36.2057 33.9182 35.822C33.9545 35.902 33.9989 35.9634 34.0356 36.0072C34.2977 36.3147 35.4956 35.5757 36.6872 34.8615C37.1612 34.5772 37.6339 34.2958 38.0403 34.0856C39.5319 33.3098 42.0076 31.4158 43.9066 29.9673C44.7121 29.3507 45.5182 28.9073 46.4707 28.393C47.312 27.9402 48.269 27.4312 49.4324 26.7206C50.097 26.3149 50.6592 26.0705 51.1201 25.874C51.4547 25.7312 51.7402 25.6108 51.9829 25.4662C52.193 25.341 52.2922 25.1349 52.4046 24.9028C52.4852 24.736 52.5745 24.5542 52.715 24.3813C53.0516 23.9672 53.5756 23.5665 53.991 23.358C54.1827 23.2617 54.3489 23.2081 54.5139 23.1552C54.7062 23.0936 54.8966 23.0339 55.1311 22.9062C56.2074 22.3199 57.148 21.5799 58.1389 20.8207C59.2272 19.9871 60.3816 19.1274 61.8203 18.4503C62.2733 18.2372 62.7822 18.0505 63.2716 17.8751C63.7845 17.6911 64.2841 17.5149 64.6873 17.3241C66.3217 16.5506 67.7029 15.5239 68.9996 14.5953C69.8635 13.977 70.6824 13.4059 71.5041 12.9854C73.0015 12.2205 73.7009 11.5426 74.2127 11.042C74.4789 10.783 74.6978 10.5713 74.9597 10.4249C75.2155 10.3275 75.476 10.2309 75.732 10.1383C75.9727 10.0661 76.2206 9.99268 76.4403 9.89403C76.457 9.88652 76.4731 9.87835 76.4896 9.8709C77.9276 9.37604 79.3624 8.94942 80.7965 8.55055C81.758 8.28328 82.7145 8.03 83.6798 7.77446C86.1622 7.10502 88.5279 6.59306 90.9202 5.94652C91.6639 5.74681 92.374 5.44967 93.1159 5.15163C94.0308 4.78542 94.9419 4.42794 95.9187 4.26778C98.253 3.88543 100.591 3.77081 102.894 3.69769C106.357 3.58835 109.699 3.57957 112.706 2.93254C113.715 2.71762 114.653 2.43173 115.63 2.14581C116.179 1.98619 116.709 1.82864 117.257 1.68598C117.154 1.8838 117.104 2.06604 117.058 2.236C116.964 2.58634 116.882 2.88594 116.375 3.17428C115.147 3.8576 113.815 4.78532 114.022 5.36031C114.078 5.51638 114.059 5.69714 114.037 5.8794C113.984 6.33698 113.925 6.8024 115.088 6.91464C115.884 6.98851 117.883 7.1578 119.144 6.72761C119.414 6.63393 119.569 6.47424 119.745 6.29674C120.061 5.97813 120.433 5.59927 121.646 5.4436C121.852 5.41742 122.065 5.39227 122.292 5.36746C123.191 5.2685 124.219 5.16307 124.588 4.90497C125.009 4.60777 124.901 4.29759 124.774 3.93579C124.609 3.4648 124.407 2.90463 125.321 2.173C125.503 2.02839 125.86 1.96475 126.132 1.91689C126.323 1.88316 126.47 1.85659 126.483 1.81517C126.497 1.76763 126.431 1.67304 126.347 1.55344C126.05 1.13236 125.537 0.391726 127.539 0.272035C128.076 0.240541 128.696 0.251812 129.256 0.263375C130.086 0.280066 130.753 0.297567 130.842 0.170076C130.874 0.121767 130.896 0.0698395 130.915 0.0161943C131.564 0.0093441 132.217 0.00397015 132.875 9.15527e-05C133.705 0.124695 134.879 0.0807371 136.342 0.0346708C136.694 0.0235548 137.066 0.0127964 137.454 0.00384426C138.745 0.0118704 140.016 0.0257864 141.303 0.0457802C142.333 0.0996771 143.391 0.196267 144.54 0.356975C146.822 0.679377 148.806 1.22924 150.731 1.77671C151.548 2.00758 152.347 2.23862 153.159 2.45265C152.841 2.47205 152.554 2.49675 152.334 2.5336C150.82 2.78614 150.198 3.32118 149.639 3.81277C149.265 4.14 148.918 4.44876 148.338 4.64606C147.27 5.00807 147.378 5.44048 147.453 5.75933C147.493 5.92484 147.523 6.0604 147.382 6.14016C147.268 6.20407 147.006 6.23324 146.736 6.26379C146.501 6.29039 146.258 6.31847 146.103 6.37013C144.223 6.9996 144.788 7.36679 145.61 7.89974C146.06 8.19398 146.588 8.54034 146.829 9.00927C147.036 9.50578 146.963 9.64965 145.985 9.84518C146.746 10.0911 147.51 10.339 148.277 10.5887C148.58 10.5748 148.803 10.4234 149.124 10.1718C149.69 9.72181 151.571 9.57538 153.014 9.47036C153.688 9.42137 154.277 9.38009 154.612 9.31707C156.377 8.98301 155.877 8.45777 155.437 7.99408C155.195 7.73912 154.972 7.50337 155.153 7.32935C155.23 7.25492 155.124 7.17723 155.016 7.09807C154.933 7.03686 154.846 6.97462 154.843 6.91236C154.834 6.46022 155.876 6.14559 156.858 5.85801C157.42 5.69312 157.959 5.53606 158.259 5.36384C158.351 5.31137 158.424 5.25728 158.491 5.20471C158.59 5.12796 158.687 5.05488 158.837 4.99417C159.178 4.8559 159.877 4.77624 160.648 4.69194C161.043 4.64869 161.458 4.6041 161.849 4.5489C162.351 4.47724 162.538 4.30516 162.735 4.12532C162.875 3.99827 163.021 3.86749 163.285 3.76511C163.701 3.60375 164.481 3.55475 165.267 3.52435C165.384 3.5199 165.5 3.51583 165.615 3.51183C166.006 3.49831 166.377 3.48474 166.691 3.46066C166.822 3.45097 166.885 3.42304 166.901 3.38153C168.359 3.30459 169.779 3.23186 171.157 3.17243C178.052 2.87227 184.438 2.9593 193.096 5.06557C194.731 5.46234 196.503 5.79975 198.287 6.10144C202.708 7.16279 207.032 8.27957 211.39 9.4258C212.555 9.73328 213.766 10.0536 214.943 10.3679C215.97 11.024 217.221 11.6665 218.747 12.301C221.619 13.4944 224.664 14.3311 228.251 15.3354C230.913 16.0807 233.848 16.9127 237.244 18.0611C242.947 19.9921 248.798 21.9278 255.448 23.9629C262.066 25.9835 269.642 28.3379 274.985 30.0412C277.905 30.9677 280.865 32.2865 283.602 33.543C287.46 35.3103 290.88 36.9644 293.255 37.1677C294.023 37.2356 294.815 37.1598 295.58 37.0877C295.756 37.0712 295.931 37.055 296.104 37.0408C296.474 37.0139 296.837 36.9958 297.184 37.0017C298.357 37.5023 299.548 38.0198 300.709 38.5372C302.687 39.7613 305.774 41.5056 309.084 42.4755C310.276 43.0674 311.45 43.6649 312.588 44.2607C315.064 45.5516 317.458 46.8698 319.841 48.2521C320.609 48.6989 321.405 49.1682 322.178 49.6331C322.186 49.6376 322.193 49.6422 322.201 49.6467C323.772 50.591 325.341 51.5677 326.86 52.5473C327.52 52.9723 328.156 53.3893 328.81 53.8224C330.452 54.9104 332.087 56.0318 333.676 57.1586C334.516 57.7546 335.358 58.3603 336.2 58.975C337.563 59.9708 338.92 60.9848 340.265 62.0075C342.434 63.6577 344.57 65.3288 346.698 67.0039C347.046 67.2781 347.353 67.5807 347.547 67.8466C347.741 68.1127 347.809 68.3214 347.73 68.4309C347.652 68.5404 347.431 68.5443 347.115 68.4474C346.8 68.3504 346.415 68.1588 346.043 67.9201C343.763 66.4579 341.48 65 339.177 63.5691C337.75 62.6825 336.316 61.8078 334.881 60.9519C333.994 60.4233 333.111 59.9042 332.23 59.3958C330.564 58.4341 328.858 57.479 327.154 56.5609C326.475 56.1948 325.815 55.8454 325.132 55.4882C323.556 54.6653 321.936 53.8473 320.318 53.062C320.308 53.0572 320.298 53.0524 320.288 53.0476C319.501 52.6662 318.688 52.2791 317.908 51.9156C315.468 50.7759 313.025 49.7014 310.51 48.6537C309.205 48.1129 307.844 47.5621 306.494 47.0344C305.74 46.7396 304.978 46.447 304.241 46.1691C303.836 46.0159 303.418 45.8585 303.003 45.7038C300.031 44.6012 297.042 43.5643 294.035 42.5811C287.414 40.421 280.708 38.5074 273.923 36.6961C264.089 34.0788 254.156 31.7098 244.225 29.4813C234.265 27.2483 224.288 25.1573 214.284 23.1634C212.378 22.7847 210.41 22.3956 208.506 22.0255C193.561 19.0951 179.544 16.5817 164.734 16.7547C139.07 16.7118 111.276 17.2679 89.19 24.0035C70.4813 30.8295 54.0519 43.0203 39.1051 57.4102C37.1878 59.2471 35.2719 61.1339 33.3583 63.0571C29.7042 66.7481 26.9382 71.0751 25.0165 75.9353C22.2456 82.9113 21.1591 90.9262 20.9116 99.5955C20.8405 102.108 20.838 104.725 20.8896 107.446C20.8918 107.544 20.8946 107.642 20.8979 107.742Z" fill="#5CBE81"/>
</svg>
