<svg width="250" height="256" viewBox="0 0 250 256" fill="none" xmlns="http://www.w3.org/2000/svg">
<path d="M98.0652 132.482C104.471 126.517 112.398 122.777 118.862 116.845C123.42 112.661 127.427 107.859 131.532 103.131C134.651 99.5361 137.82 95.9908 141.328 92.8173C149.394 85.5231 157.573 78.2047 165.797 70.9479C174.031 63.6801 182.315 56.4665 190.675 49.2528C199.021 42.0551 207.424 34.8726 215.854 27.7295C217.292 26.5079 218.724 25.2952 220.13 24.1134C224.474 20.4413 228.771 16.8417 233.143 13.2082C235.688 11.1001 238.22 8.99762 240.827 6.93179C241.761 6.21253 242.621 5.46938 243.816 4.79802C245.068 4.17533 245.95 3.69258 246.852 2.78297C247.083 2.55773 247.394 2.40222 247.737 2.35574C248.081 2.30871 248.426 2.37649 248.705 2.56423C248.982 2.75375 249.174 3.05295 249.23 3.41358C249.285 3.77159 249.196 4.16071 248.981 4.4899C248.246 5.73607 246.723 7.07812 245.845 7.77832C245.327 8.27159 244.569 9.21543 243.861 10.0874C242.179 12.1823 240.498 14.359 238.82 16.5264C237.531 15.8776 236.37 15.5759 235.263 16.0614C234.701 16.3069 234.063 16.8304 233.824 17.4493C233.623 17.9919 233.632 18.576 233.637 19.1364C233.649 19.7151 233.676 20.2487 233.425 20.7089C232.98 21.5109 232.897 22.4451 232.732 23.5088C232.684 23.8831 232.641 24.2583 232.575 24.64C230.981 26.7166 229.362 28.8196 227.773 30.8902C227.678 30.9653 227.584 31.0403 227.49 31.1151C226.816 31.647 226.196 32.1722 225.743 32.7212C225.289 33.2726 225.072 33.9241 224.885 34.646C224.637 34.968 224.376 35.3042 224.133 35.621C222.549 37.6814 220.911 39.7914 219.321 41.8465C217.641 43.0784 215.916 44.3728 213.883 46.2791C212.996 47.1114 212.058 47.8067 211.125 48.5088C209.762 49.5281 208.48 50.4873 207.666 51.6254C207.127 52.3804 206.313 52.9497 205.495 53.5235C204.41 54.2805 203.328 55.0342 202.887 56.2608C202.616 57.0253 202.442 57.7925 202.276 58.5085C202.015 59.6456 201.775 60.6511 201.258 61.2413C200.281 62.3556 199.681 63.6074 199.179 64.6838C198.567 65.9859 198.038 67.0939 197.041 67.5252C196.89 67.5907 196.708 67.6577 196.502 67.7326C195.421 68.1256 193.679 68.768 192.344 70.7843C191.868 71.5035 191.601 72.3693 191.351 73.2063C190.983 74.4289 190.621 75.6198 189.612 76.2947C189.462 76.3946 189.219 76.4157 188.999 76.4347C188.718 76.4588 188.472 76.48 188.496 76.6569C188.565 77.1756 188.532 77.8613 188.496 78.6075C188.469 79.1557 188.44 79.7373 188.449 80.3081C186.473 82.6628 184.481 85.0134 182.475 87.3525C181.558 88.4228 180.635 89.4938 179.71 90.5607C178.763 90.6396 177.849 90.7727 177.002 91.0299C175.895 91.3661 174.847 92.1859 173.496 93.2386C172.502 94.012 171.339 94.9168 169.87 95.845C167.149 97.5667 164.979 99.9588 163.784 101.687C163.532 102.051 163.281 102.423 163.012 102.822C161.995 104.334 160.73 106.221 158.053 109.54C155.525 112.675 153.149 115.15 151.367 116.996C150.467 117.929 149.689 118.728 149.141 119.354C148.826 119.713 148.485 120.095 148.127 120.492C147.396 121.297 146.597 122.161 145.802 123.017C143.912 125.05 142.008 127.075 141.021 128.314C140.675 128.751 140.307 129.233 139.916 129.746C138.837 131.164 137.524 132.879 135.51 135.015C133.398 137.254 131.885 138.426 130.195 139.516C129.509 139.959 128.632 140.044 127.731 140.126C126.438 140.254 125.103 140.375 124.179 141.526C123.961 141.796 123.772 142.133 123.576 142.485C123.214 143.132 122.834 143.822 122.175 144.255C121.946 144.406 121.673 144.458 121.406 144.508C121.112 144.564 120.825 144.619 120.607 144.801C119.797 145.478 119.041 146.196 118.375 146.827C117.52 147.638 116.793 148.324 116.249 148.637C115.28 149.193 114.508 150.136 113.728 151.088C113.137 151.812 112.53 152.551 111.828 153.125C109.821 154.765 107.387 157.382 105.028 160.256C104.132 161.347 103.04 161.858 101.624 162.526C100.745 162.939 99.7509 163.404 98.6087 164.1C97.9628 164.494 97.6767 165.125 97.4067 165.712C97.1593 166.252 96.9307 166.751 96.4595 166.987C96.044 167.194 95.5073 167.011 94.998 166.837C94.4313 166.644 93.8982 166.461 93.6004 166.844C93.442 167.047 93.3694 167.433 93.2834 167.891C93.2495 168.072 93.2121 168.265 93.1668 168.463C93.1084 168.382 93.052 168.314 93.0082 168.263C92.6986 167.903 92.1675 168.032 91.6477 168.157C91.4401 168.208 91.234 168.258 91.0447 168.276C90.3488 168.342 89.486 169.001 88.874 169.555C88.615 169.79 88.2798 169.886 87.8888 169.997C87.5417 170.096 87.1482 170.21 86.7267 170.443C86.4862 170.576 86.2402 170.608 86.0362 170.633C85.8885 170.651 85.7626 170.667 85.6768 170.716C85.6027 170.759 85.6404 170.907 85.6831 171.073C85.7139 171.192 85.7471 171.321 85.7428 171.428C85.7327 171.684 85.5988 171.875 85.4396 171.934C85.3662 171.961 85.2877 171.959 85.2098 171.957C85.1189 171.955 85.0281 171.952 84.9447 171.996C84.5619 172.198 84.3551 172.583 84.141 172.984C83.9059 173.424 83.6597 173.882 83.1609 174.136C83.004 174.216 82.8019 174.261 82.6062 174.304C82.4014 174.35 82.2029 174.394 82.0715 174.475C81.5383 174.802 81.325 175.44 81.1299 176.026C81.0002 176.416 80.8779 176.784 80.6746 177.022C80.3019 177.459 80.3421 177.967 80.3721 178.341C80.3877 178.535 80.401 178.694 80.3518 178.789C80.2758 178.841 80.1974 178.892 80.1197 178.941C80.0375 178.974 79.9525 179.008 79.8986 179.068C79.8945 179.073 79.8911 179.078 79.8871 179.083C79.4411 179.345 78.9753 179.571 78.5118 179.795C77.4706 180.299 76.4432 180.798 75.6938 181.702C75.5324 181.897 75.4546 182.193 75.3756 182.493C75.2889 182.822 75.2008 183.159 74.9991 183.376C74.9757 183.401 74.9507 183.424 74.9241 183.446C74.3129 183.946 73.5361 184.273 72.7714 184.596C71.6194 185.084 70.4963 185.562 70.0076 186.604C69.8466 186.948 69.7576 187.357 69.6698 187.769C69.6208 187.998 69.572 188.228 69.5106 188.447C69.3903 188.255 69.2653 188.086 69.1486 187.929C68.9081 187.604 68.7025 187.326 68.6424 186.985C68.5004 186.179 68.2285 185.14 67.7202 184.665C67.5821 184.537 67.4498 184.374 67.3174 184.209C66.9852 183.795 66.6459 183.373 66.1778 183.47C65.8621 183.535 65.0828 183.735 65.0222 184.34C65.0091 184.472 65.083 184.642 65.1651 184.83C65.3127 185.168 65.4869 185.569 65.2367 185.93C65.1945 185.991 65.1467 186.055 65.0963 186.12C64.8952 186.378 64.67 186.667 64.7609 186.965C64.8656 187.308 65.141 187.558 65.462 187.849C65.8801 188.228 66.3763 188.679 66.6767 189.497C66.736 189.659 66.6799 189.784 66.6377 189.88C66.608 189.947 66.5861 189.999 66.6147 190.037C66.6478 190.082 66.7411 190.151 66.8594 190.239C67.2769 190.549 68.0046 191.092 67.5174 191.593C67.3856 191.729 67.1982 191.844 67.0301 191.947C66.7823 192.099 66.577 192.226 66.653 192.355C66.682 192.403 66.7166 192.453 66.7537 192.503C66.5754 192.645 66.3974 192.786 66.2193 192.927C65.8868 192.998 65.5966 193.288 65.236 193.65C65.1484 193.738 65.0558 193.83 64.9583 193.924C64.6056 194.203 64.2554 194.481 63.901 194.762C63.5902 194.951 63.2314 195.122 62.8094 195.255C61.965 195.522 61.0236 195.54 60.1038 195.559C59.7163 195.566 59.3322 195.573 58.9608 195.6C59.0227 195.502 59.0731 195.407 59.0977 195.319C59.2662 194.718 58.9891 194.109 58.7338 193.548C58.5641 193.175 58.4042 192.823 58.3931 192.509C58.3727 191.935 57.9991 191.592 57.7228 191.338C57.5795 191.206 57.4627 191.098 57.4349 190.995C57.4127 190.912 57.4563 190.822 57.5014 190.729C57.5407 190.648 57.5811 190.564 57.5799 190.482C57.5657 189.48 57.1243 189.305 56.4807 189.05C56.1258 188.91 55.7099 188.745 55.2703 188.404C54.8176 188.031 54.7194 187.889 54.8198 187.478C54.4216 187.457 54.0236 187.436 53.6238 187.418C53.5571 187.506 53.6198 187.693 53.7395 187.99C53.9533 188.521 53.5957 189.124 53.3182 189.595C53.1895 189.813 53.0788 190.002 53.0472 190.144C52.8811 190.899 53.432 191.211 53.9162 191.487C54.1827 191.638 54.4291 191.779 54.5254 191.975C54.5667 192.059 54.656 192.096 54.7467 192.135C54.8169 192.164 54.8885 192.195 54.9395 192.247C55.3095 192.627 55.3057 193.172 55.3036 193.677C55.3024 193.966 55.3023 194.242 55.3714 194.468C55.3925 194.537 55.4193 194.602 55.4458 194.665C55.4846 194.757 55.5211 194.844 55.5349 194.936C55.5663 195.145 55.466 195.401 55.3561 195.681C55.2996 195.824 55.2418 195.973 55.1959 196.127C55.137 196.326 55.2345 196.523 55.3358 196.729C55.4074 196.874 55.4805 197.025 55.5037 197.184C55.5454 197.472 55.3587 197.768 55.1861 198.041C55.111 198.161 55.039 198.277 54.989 198.385C54.9686 198.43 54.9778 198.471 55.0084 198.51C54.7515 198.983 54.5102 199.447 54.2779 199.898C53.1198 202.154 52.1171 204.115 49.5235 205.893C49.0319 206.23 48.5987 206.677 48.1923 207.181C46.5887 208.445 44.9718 209.72 43.3639 210.984C42.7442 210.921 42.104 210.986 41.4671 211.169C40.2753 211.509 39.3708 212.22 38.3188 213.046C37.5344 213.664 36.6692 214.344 35.5243 215.008C33.5988 216.125 31.6995 217.343 29.7576 218.928C27.8242 220.506 25.678 222.393 24.209 223.77C23.4005 224.528 22.281 225.041 21.2446 225.514C20.157 226.016 19.1531 226.479 18.6837 227.116C18.5077 227.351 18.4009 227.608 18.3813 227.897C18.3566 228.249 18.4665 228.709 18.5645 229.165C18.6326 229.491 18.6991 229.809 18.7201 230.075C18.3515 230.352 17.9868 230.626 17.6122 230.908C16.708 231.123 15.4236 231.664 14.9425 232.898C14.5509 233.191 14.1829 233.46 13.8006 233.742C12.9989 234.333 12.1926 234.924 11.3905 235.507C11.1262 235.699 10.8658 235.886 10.5948 236.083C10.5922 236.085 10.5896 236.087 10.5871 236.088C10.0593 236.468 9.50582 236.87 8.97595 237.246C8.74703 237.41 8.51289 237.577 8.2891 237.735C7.70184 238.154 7.11384 238.57 6.53252 238.974C6.22397 239.189 5.91225 239.406 5.60022 239.621C5.09454 239.97 4.58042 240.322 4.06786 240.668C3.23661 241.231 2.4075 241.777 1.57627 242.318C1.44007 242.406 1.2722 242.449 1.1063 242.434C0.940435 242.419 0.790392 242.348 0.684494 242.23C0.578599 242.112 0.523064 241.955 0.525337 241.789C0.528005 241.622 0.588798 241.461 0.690623 241.336C1.31524 240.568 1.93367 239.803 2.5526 239.027C2.93365 238.549 3.31525 238.065 3.68973 237.588C3.92087 237.294 4.15259 236.999 4.38094 236.705C4.81111 236.152 5.2489 235.589 5.68713 235.025C5.85159 234.81 6.0274 234.584 6.19693 234.364C6.59014 233.851 7.00795 233.315 7.4003 232.802C7.40274 232.798 7.40519 232.795 7.40763 232.792C7.60988 232.531 7.80086 232.28 7.99694 232.024C8.59595 231.244 9.20151 230.456 9.80418 229.671C10.1293 229.247 10.4389 228.841 10.7769 228.404C10.9532 228.173 11.1329 227.938 11.3128 227.704C11.4118 227.576 11.5136 227.445 11.6094 227.32C12.6654 225.944 13.7191 224.571 14.7783 223.195C15.9909 221.619 17.204 220.047 18.4313 218.469C20.7192 215.525 23.0342 212.584 25.3587 209.674C27.701 206.746 30.0412 203.86 32.4256 200.973C41.6608 189.79 51.2368 178.796 61.3596 168.192C67.7954 161.452 74.391 154.942 81.0093 148.577C83.4393 146.238 85.9436 143.862 88.3853 141.554C90.854 139.224 93.271 136.953 95.7493 134.64C96.5025 133.936 97.2747 133.217 98.0652 132.482Z" fill="#F6392B"/>
<path d="M105.92 101.582C112.262 107.804 116.402 115.69 122.591 122.105C130.274 130.069 139.811 136.494 147.222 144.773C154.59 153.008 161.852 161.399 169.003 169.887C176.14 178.36 183.181 186.944 190.173 195.631C193.789 200.129 197.378 204.64 200.957 209.18C204.281 213.392 207.569 217.602 210.842 221.83C215.505 227.845 220.071 233.815 224.639 239.911C226.6 242.545 228.622 245.257 230.539 247.972C231.657 249.599 232.815 251.105 233.744 253.066C233.864 253.343 233.982 253.628 234.074 253.978C234.117 254.156 234.166 254.347 234.16 254.641C234.154 254.782 234.132 254.976 234.026 255.185C233.923 255.397 233.712 255.588 233.529 255.669C233.055 255.861 232.826 255.74 232.635 255.661C232.448 255.566 232.317 255.436 232.218 255.287C232.023 254.989 231.967 254.642 232.038 254.314C232.108 253.985 232.328 253.702 232.573 253.493C232.692 253.388 232.814 253.304 232.857 253.231C232.876 253.195 232.876 253.16 232.806 253.14C232.735 253.127 232.583 253.1 232.251 253.258C231.996 253.373 231.65 253.7 231.508 254.021C231.358 254.339 231.348 254.57 231.342 254.691C231.34 254.943 231.352 254.944 231.329 254.938C231.288 254.905 231.179 254.741 231.056 254.584C230.165 253.487 228.616 252.097 227.224 250.832C225.201 249.01 223.121 247.21 221.039 245.416C221.743 244.151 222.111 243.014 221.681 241.882C221.436 241.277 220.982 240.652 220.36 240.367C219.801 240.109 219.235 240.108 218.684 240.094C218.108 240.081 217.557 240.064 217.102 239.782C216.358 239.336 215.389 239.166 214.336 238.95C213.967 238.887 213.592 238.824 213.215 238.741C211.179 237.008 209.211 235.352 207.171 233.622C206.593 232.807 206.022 232.04 205.42 231.495C204.907 231.034 204.251 230.772 203.539 230.554C203.225 230.288 202.908 230.019 202.588 229.747C200.606 228.078 198.589 226.369 196.553 224.641C195.427 222.945 194.169 221.129 192.344 219.016C192.108 218.744 191.881 218.464 191.658 218.178C191.156 217.524 190.685 216.838 190.22 216.165C189.232 214.739 188.336 213.433 187.226 212.572C186.49 212.003 185.909 211.124 185.394 210.314C184.684 209.207 183.959 208.086 182.74 207.592C181.968 207.275 181.225 207.092 180.513 206.898C179.387 206.597 178.395 206.327 177.808 205.774C176.694 204.724 175.515 204.135 174.434 203.574C173.143 202.908 172.044 202.334 171.653 201.331C171.592 201.178 171.531 200.994 171.463 200.786C171.111 199.699 170.494 197.905 168.528 196.518C167.825 196.021 166.973 195.734 166.136 195.45C164.915 195.036 163.727 194.632 163.092 193.613C162.996 193.461 162.982 193.218 162.969 192.996C162.952 192.714 162.938 192.468 162.76 192.486C162.239 192.54 161.553 192.486 160.806 192.427C160.257 192.383 159.674 192.336 159.101 192.327C156.81 190.297 154.481 188.214 152.207 186.171C151.161 185.231 150.092 184.263 149.056 183.326C149 182.38 148.887 181.464 148.647 180.611C148.336 179.499 147.521 178.417 146.502 177.054C145.749 176.047 144.868 174.87 143.956 173.377C142.284 170.629 139.909 168.412 138.198 167.2C137.836 166.943 137.468 166.688 137.073 166.416C135.574 165.383 133.7 164.094 130.401 161.4C127.277 158.849 124.821 156.488 122.977 154.715C122.035 153.81 121.253 153.056 120.623 152.509C119.543 151.573 118.248 150.395 116.949 149.212C114.917 147.361 112.869 145.493 111.616 144.531C111.17 144.188 110.691 143.839 110.175 143.461C108.744 142.414 107.009 141.143 104.841 139.201C102.553 137.149 101.35 135.686 100.22 134.044C99.7585 133.374 99.6456 132.5 99.5313 131.6C99.3691 130.322 99.2016 128.99 98.0235 128.113C97.7488 127.909 97.4039 127.731 97.0455 127.549C96.3865 127.212 95.6741 126.85 95.2215 126.214C95.0637 125.993 95.0021 125.723 94.9419 125.459C94.8757 125.169 94.8106 124.884 94.6203 124.674C93.9109 123.892 93.1702 123.174 92.5074 122.531C91.6549 121.704 90.9437 121.013 90.6083 120.485C90.0109 119.542 89.0413 118.82 88.0466 118.077C87.2897 117.513 86.5268 116.945 85.9216 116.272C84.1962 114.353 81.4522 112.04 78.4433 109.809C77.3045 108.965 76.736 107.897 75.9977 106.518C75.5303 105.651 75.0035 104.668 74.2478 103.561C73.8195 102.933 73.1732 102.676 72.5764 102.44C72.0204 102.215 71.501 102.002 71.236 101.536C71.0018 101.125 71.1563 100.578 71.3032 100.059C71.4669 99.4812 71.6209 98.938 71.2224 98.6569C71.0104 98.5073 70.6202 98.4521 70.1572 98.3869C69.9741 98.3612 69.7794 98.333 69.5797 98.2978C69.6573 98.2354 69.7229 98.1758 69.7717 98.1296C70.1134 97.8006 69.9706 97.288 69.8072 96.7609C69.7439 96.5526 69.6806 96.3459 69.6512 96.1551C69.5423 95.4523 68.8327 94.6095 68.2462 94.0189C67.998 93.7688 67.8855 93.4366 67.7552 93.0497C67.6379 92.7046 67.5154 92.3255 67.2548 91.9052C67.1059 91.6654 67.06 91.4171 67.0231 91.2112C66.9963 91.0621 66.9738 90.9352 66.9188 90.85C66.8711 90.7763 66.7245 90.8193 66.5595 90.8678C66.4407 90.9027 66.312 90.9405 66.2038 90.9396C65.9452 90.9374 65.7461 90.8089 65.6787 90.6507C65.6476 90.5776 65.6456 90.4986 65.6438 90.42C65.6416 90.3285 65.6401 90.237 65.5918 90.1545C65.3704 89.7766 64.9737 89.583 64.5628 89.383C64.1099 89.1618 63.647 88.9399 63.3669 88.4436C63.2772 88.2858 63.2205 88.0814 63.166 87.8837C63.109 87.6768 63.0535 87.4764 62.9652 87.3452C62.6067 86.8126 61.9545 86.6155 61.3565 86.4362C60.9589 86.317 60.5851 86.205 60.3382 86.0083C59.9318 85.6841 59.4827 85.6976 59.125 85.7342C59.0839 85.7377 59.044 85.7414 59.0055 85.745C58.809 85.7635 58.648 85.7792 58.5489 85.7303C58.4921 85.6534 58.436 85.5742 58.3823 85.4957C58.345 85.4123 58.3064 85.3263 58.2421 85.2723C58.2372 85.2682 58.2316 85.2648 58.2268 85.2608C57.9389 84.8108 57.6899 84.3416 57.4453 83.8774C56.8907 82.8292 56.3851 81.8367 55.4199 81.0627C55.2155 80.8997 54.9131 80.8229 54.6064 80.7453C54.2307 80.6502 53.8472 80.5538 53.6282 80.2972C53.1007 79.6795 52.7803 78.9306 52.4103 78.1339C51.8742 76.9573 51.3667 75.8239 50.319 75.3445C49.9776 75.191 49.5525 75.0895 49.1326 74.9962C48.898 74.9437 48.6623 74.8916 48.4386 74.8269C48.6305 74.7063 48.7991 74.5806 48.9563 74.4633C49.2802 74.2216 49.5576 74.0148 49.9025 73.9568C50.7177 73.8197 51.7678 73.553 52.2361 73.0387C52.3632 72.8991 52.5253 72.7657 52.6892 72.6322C53.0999 72.2965 53.5201 71.9546 53.4102 71.4774C53.336 71.1556 53.1166 70.3637 52.5075 70.3027C52.3748 70.2893 52.2053 70.3637 52.0168 70.4462C51.6783 70.5946 51.2764 70.7692 50.912 70.5178C50.8507 70.4755 50.7862 70.4275 50.7209 70.377C50.46 70.1755 50.1703 69.951 49.8728 70.0427C49.5301 70.1484 49.281 70.4244 48.9906 70.746C48.6123 71.1651 48.163 71.6627 47.3452 71.9641C47.184 72.0243 47.0564 71.9666 46.9579 71.9211C46.8889 71.8895 46.8355 71.8661 46.7966 71.8947C46.7523 71.9277 46.6834 72.0217 46.5965 72.1409C46.2901 72.5619 45.7527 73.2952 45.2315 72.7876C45.0908 72.6505 44.9701 72.4573 44.8626 72.2845C44.7041 72.0297 44.5735 71.8195 44.4441 71.8947C44.3952 71.9233 44.3452 71.9577 44.2946 71.9946C44.1493 71.8115 44.0047 71.629 43.8606 71.4471C43.7873 71.111 43.4949 70.8161 43.133 70.452C43.0448 70.3633 42.9548 70.272 42.8551 70.1674C42.5638 69.798 42.2749 69.4312 41.9894 69.0666C41.796 68.7472 41.6225 68.3807 41.4886 67.9528C41.2235 67.0985 41.2102 66.1505 41.1851 65.2096C41.1766 64.8154 41.1697 64.4256 41.1446 64.0492C41.2434 64.1144 41.3387 64.168 41.4275 64.1952C42.0353 64.3822 42.6535 64.1185 43.2216 63.8748C43.5997 63.7129 43.9563 63.5603 44.2746 63.5581C44.8555 63.5515 45.1969 63.1752 45.4554 62.9036C45.5888 62.7619 45.6987 62.6465 45.8019 62.6194C45.8848 62.5979 45.9738 62.6422 46.0659 62.6881C46.1461 62.7281 46.2295 62.7693 46.3119 62.7689C47.3137 62.765 47.4932 62.3248 47.7547 61.6843C47.8991 61.3312 48.0696 60.9181 48.416 60.4829C48.7946 60.0349 48.9366 59.9379 49.3451 60.0404C49.37 59.6425 49.4033 59.2538 49.4229 58.85C49.3338 58.7804 49.1444 58.8396 48.8444 58.954C48.3083 59.1579 47.7014 58.7837 47.2326 58.4966C47.0154 58.3635 46.8269 58.2486 46.6859 58.2155C45.9373 58.0404 45.615 58.585 45.3309 59.0639C45.1747 59.3276 45.03 59.5715 44.8326 59.6647C44.7483 59.7047 44.7093 59.7934 44.6692 59.8834C44.6383 59.9531 44.607 60.0241 44.5539 60.0743C44.1679 60.4382 43.6233 60.4257 43.1199 60.4164C42.8314 60.4109 42.5566 60.4077 42.3295 60.4726C42.2594 60.4915 42.1931 60.5164 42.1292 60.5412C42.036 60.5773 41.9467 60.6112 41.8533 60.6219C41.6408 60.6461 41.3808 60.5345 41.0977 60.413C40.9526 60.3507 40.8014 60.2859 40.6469 60.2355C40.4469 60.1703 40.2476 60.263 40.0388 60.3591C39.8913 60.4271 39.7387 60.4965 39.5782 60.5153C39.2877 60.549 38.9933 60.3527 38.7219 60.1723C38.6037 60.0937 38.489 60.0186 38.381 59.9658C38.3371 59.9443 38.2958 59.9524 38.2559 59.9821C37.7946 59.7208 37.3121 59.4411 36.8614 59.1907C34.6043 57.9372 32.6658 56.8659 30.92 54.124C30.6014 53.6183 30.1589 53.151 29.6595 52.7081C28.4352 51.0165 27.2317 49.3276 26.004 47.5887C26.0894 46.9603 26.0774 46.3363 25.9145 45.6694C25.6067 44.415 24.9726 43.4904 24.1836 42.3446C23.629 41.5307 22.9629 40.5636 22.39 39.3754C21.3894 37.3337 20.3017 35.3031 18.8774 33.1827C17.4557 31.0693 15.7892 28.6996 14.5743 27.0376C13.899 26.1168 13.5328 24.9412 13.1795 23.8184C12.6907 22.2502 12.2858 20.8618 11.1937 20.6051C10.848 20.5276 10.3712 20.5599 9.90208 20.5828C9.56921 20.6007 9.24392 20.6177 8.97782 20.5975C8.94084 20.5288 8.90405 20.4603 8.86744 20.3921C8.677 20.0415 8.49508 19.7018 8.31124 19.3566C8.21737 18.399 7.89399 17.0557 6.73642 16.3483C6.51871 15.9224 6.29117 15.4804 6.08398 15.0632C5.62309 14.1509 5.17736 13.2446 4.7381 12.33C4.59536 12.0313 4.45097 11.7282 4.30812 11.4251C4.30682 11.4221 4.30552 11.4191 4.30422 11.4162C4.01703 10.8064 3.72762 10.184 3.45465 9.57665C3.33324 9.30983 3.22157 9.05662 3.10181 8.78891C2.80603 8.12238 2.51495 7.45091 2.23544 6.78364C2.08699 6.42916 1.93932 6.07324 1.79529 5.71819C1.55885 5.13758 1.32627 4.55285 1.10063 3.97059C0.73648 3.03064 0.387309 2.09096 0.0444371 1.15465C-0.011282 1.0016 -0.0160807 0.82692 0.0356496 0.668272C0.0875552 0.509501 0.190687 0.378983 0.329093 0.302266C0.467583 0.225565 0.633484 0.207227 0.795499 0.247512C0.957059 0.287895 1.10103 0.384856 1.20087 0.512853C1.81121 1.2991 2.42226 2.08442 3.03968 2.8613C3.42185 3.34255 3.80887 3.8224 4.19604 4.29686C4.43315 4.58672 4.67132 4.87678 4.91076 5.16444C5.36132 5.70601 5.82088 6.25018 6.28159 6.78749C6.46644 7.00421 6.64301 7.20617 6.8291 7.42148C7.25478 7.90977 7.6939 8.41175 8.13014 8.90197C8.13279 8.90499 8.13544 8.908 8.13809 8.91102C8.35229 9.15154 8.56891 9.39369 8.78235 9.63008C9.4409 10.3627 10.1033 11.0878 10.7769 11.8194C11.1262 12.1938 11.4931 12.5929 11.8557 12.9811C12.062 13.2036 12.2597 13.4126 12.4609 13.6264C12.5694 13.7421 12.6839 13.8665 12.7916 13.9807C13.456 14.6868 14.115 15.3786 14.7873 16.0836C16.6846 18.0684 18.5916 20.0119 20.5366 21.9449C23.1498 24.5395 25.8273 27.1183 28.5027 29.6484C31.1833 32.1845 33.9128 34.7333 36.6205 37.2377C49.0158 48.6871 61.6674 60.013 74.1882 71.5514C79.1035 76.0745 83.9955 80.6148 88.8592 85.1941C91.3161 87.5052 93.8446 89.9122 96.278 92.2402C98.7722 94.6316 101.169 96.9408 103.624 99.3365C104.369 100.061 105.133 100.81 105.92 101.582Z" fill="#F6392B"/>
</svg>
