<svg width="324" height="101" viewBox="0 0 324 101" fill="none" xmlns="http://www.w3.org/2000/svg">
<path d="M135.941 35.6793C137.607 31.8162 139.37 28.0095 141.213 24.2432C141.25 24.1675 141.286 24.0921 141.323 24.017C144.624 17.6749 147.105 11.7328 153.415 4.42373C153.492 4.3378 153.57 4.25222 153.653 4.16228C154.498 3.33293 155.374 2.13267 158.162 0.858202C159.542 0.254527 161.688 -0.22029 163.853 0.106469C166.022 0.409681 167.769 1.37195 168.863 2.21897C168.996 2.32052 169.122 2.42149 169.241 2.5215C171.041 4.12453 171.348 4.86547 171.874 5.65083C172.29 6.33981 172.576 6.91361 172.834 7.45842C173.314 8.48971 173.646 9.35244 173.962 10.2066C174.567 11.8621 175.047 13.382 175.515 14.8835C176.44 17.8788 177.279 20.7561 178.169 23.6447C180.493 31.2348 182.944 38.687 185.535 46.0947C185.565 46.1794 185.594 46.2638 185.624 46.3476C187.825 52.7597 191.542 60.9155 193.15 60.8482C192.814 60.5812 192.461 60.3437 192.102 60.1401C189.816 58.9551 188.107 58.9192 185.679 59.6932C183.811 60.3839 183.01 61.1226 182.555 61.4836C182.077 61.895 181.898 62.0969 181.719 62.2889C181.543 62.4839 181.464 62.5828 181.392 62.6721C181.25 62.8513 181.224 62.8891 181.209 62.9031C181.191 62.9161 181.273 62.7655 181.363 62.5819C181.553 62.2033 181.816 61.6428 182.07 61.0775C182.594 59.9129 183.145 58.6136 183.701 57.2887C184.816 54.6303 185.947 51.8865 187.123 49.1433C188.835 45.1428 190.568 41.0934 192.346 37.0561C192.411 36.9085 192.476 36.7615 192.541 36.6152C197.859 24.6855 207.145 13.9734 220.434 8.52693C220.437 8.52586 220.44 8.52479 220.443 8.52372C225.724 6.67022 228.248 7.67158 230.32 7.92111C230.398 7.93609 230.477 7.95158 230.552 7.96623C231.288 8.03951 233.967 8.93981 235.249 9.9752C236.617 10.9758 237.258 11.7546 237.767 12.3465C238.727 13.5199 239.182 14.2672 239.647 14.9943C240.529 16.4099 241.18 17.5896 241.83 18.7836C243.098 21.1281 244.235 23.4038 245.281 25.704C245.318 25.7865 245.356 25.8695 245.394 25.953C245.645 26.5086 245.917 27.111 246.168 27.6693C253.043 43.0594 259.527 58.4111 266.08 73.7313C266.133 73.854 266.185 73.9758 266.236 74.0966C267.206 76.3679 268.119 78.617 269.037 80.7462C269.48 81.7782 269.983 82.8724 270.258 83.4171C270.31 83.5307 270.361 83.6126 270.226 83.467C270.142 83.3807 270.034 83.2456 269.664 82.9259C269.239 82.643 268.732 81.915 266.378 81.4228C265.263 81.2024 263.528 81.3799 262.376 81.928C261.162 82.4758 260.516 83.103 260.074 83.5761C259.293 84.4714 259.183 84.8626 259.065 85.0924C258.888 85.5263 258.958 85.4446 258.993 85.3426C259.039 85.2234 259.102 85.0236 259.17 84.7853C259.302 84.3113 259.432 83.841 259.561 83.3658C262.251 73.9519 263.504 64.7964 267.298 53.8128C267.411 53.5312 267.54 53.218 267.668 52.9262C270.096 48.0529 271.572 43.8546 277.678 38.8539C278.179 38.5313 278.75 38.1596 279.798 37.8079C282.782 36.8148 285.612 38.0331 286.896 38.9081C288.313 39.8424 289.166 40.7452 289.946 41.5933C291.478 43.3098 292.579 44.897 293.682 46.4848C295.836 49.632 297.782 52.6812 299.825 55.6248C303.023 60.2524 306.412 64.6427 310.267 68.5546C310.28 68.5679 310.293 68.5811 310.306 68.5943C312.12 70.4567 314.557 72.1421 316.843 73.0723C316.889 73.0908 316.937 73.1091 316.979 73.1256C317.057 73.1639 317.071 73.1622 316.877 73.1631C316.701 73.1594 316.189 73.228 315.794 73.4872C315.397 73.7408 315.262 73.989 315.231 74.0612C315.199 74.1433 315.24 74.1152 315.285 74.0417C315.488 73.7102 315.737 72.9086 315.932 72.1662C316.334 70.6232 316.666 68.9371 316.957 67.2745C316.972 67.1892 316.987 67.103 317.002 67.016C317.466 64.3131 317.888 61.565 318.293 58.8284C319.27 52.179 320.149 45.5358 320.983 38.8629C321.185 37.2477 321.385 35.6134 321.578 34.0006C321.581 33.9769 321.584 33.9533 321.586 33.9296C321.982 30.5874 322.495 27.2794 322.742 23.942C322.792 23.2496 322.857 22.586 322.929 22.0938C323.002 21.6032 323.079 21.3257 323.161 21.325C323.244 21.3275 323.33 21.6061 323.417 22.1004C323.502 22.5954 323.581 23.2695 323.613 23.9755C323.742 27.3748 323.809 30.7261 323.724 34.0967C323.723 34.1205 323.722 34.1444 323.722 34.1683C323.672 35.8408 323.62 37.5307 323.568 39.2072C323.391 44.8303 323.206 50.4418 323.014 56.071C322.005 56.8681 321.183 58.0081 320.651 60.2467C320.38 61.3865 320.148 63.0641 320.215 64.3236C320.276 65.4576 320.498 66.3168 320.712 67.1573C320.736 67.2488 320.76 67.3392 320.784 67.4286C320.807 67.521 320.829 67.6124 320.851 67.7032C321.019 68.3736 321.157 69.0812 321.162 69.9018C321.141 71.7193 321.548 73.2918 321.482 75.672C321.446 76.1303 321.4 76.633 321.133 77.35C320.879 78.005 320.253 79.2587 318.589 80.0032C316.667 80.6649 315.579 80.2196 314.97 80.1124C314.877 80.0903 314.781 80.0659 314.69 80.042C310.782 78.9318 307.674 77.1792 304.708 74.7129C304.688 74.6956 304.667 74.6782 304.647 74.6608C303.232 73.4635 301.871 72.2213 300.555 70.9423C299.142 69.2648 297.909 67.6938 296.792 66.4373C295.788 65.3059 294.737 64.3972 293.644 63.503C293.091 62.8534 292.535 62.1872 291.992 61.5281C288.509 57.3485 285.181 52.6367 282.155 49.5799C281.729 49.0063 281.284 48.5152 281.15 48.3484C281.094 48.263 281.137 48.2907 281.498 48.365C281.846 48.4469 282.662 48.4685 283.283 48.2089C283.818 48.0009 283.895 47.8869 283.931 47.8528C283.918 47.7558 283.165 48.399 282.595 49.0961C281.985 49.818 281.349 50.7152 280.732 51.7272C279.699 53.4205 278.698 55.205 277.816 56.9971C277.764 57.0966 277.711 57.2024 277.658 57.3141C277.627 57.3796 277.597 57.4428 277.567 57.5069C276.443 60.0074 275.599 63.0722 275.215 65.7267C274.954 67.5665 274.416 69.4825 273.878 71.399C273.156 73.9758 272.431 76.5611 272.386 79.0417C272.359 80.6022 272.405 82.0576 272.438 83.4103C272.479 85.0566 272.5 86.5533 272.343 87.9C272.294 88.2673 272.234 88.6264 272.125 89.062C272.091 89.1983 272.056 89.3261 272.009 89.4859C271.912 89.8031 271.804 90.1522 271.596 90.6534C271.37 91.1292 271.178 91.7888 270.109 92.9815C269.546 93.5758 268.549 94.4343 266.988 94.8737C265.39 95.3394 263.73 95.0533 262.807 94.6906C260.884 93.8866 260.543 93.3188 260.022 92.87C258.545 91.3084 258.288 90.7413 257.737 90.0094C256.784 88.6495 256.049 87.5957 255.334 86.5716C253.843 84.4294 252.638 82.6542 251.984 80.8535C251.938 80.7272 251.896 80.5998 251.855 80.4713C251.822 80.3659 251.791 80.2598 251.762 80.153C251.676 79.8442 251.586 79.4817 251.492 79.0877C250.978 76.9755 250.157 73.5891 247.732 69.3436C246.868 67.8323 245.851 66.5097 244.853 65.2116C243.401 63.3259 241.991 61.4955 241.161 59.2159C241.037 58.8748 241.002 58.4755 240.969 58.1113C240.929 57.6482 240.893 57.2436 240.686 57.0916C240.08 56.6446 239.275 55.8644 238.398 55.0153C237.756 54.3947 237.071 53.7303 236.405 53.1438C233.551 47.5763 230.701 42.0076 227.837 36.517C227.569 36.0051 227.279 35.4493 227.013 34.9442C226.972 34.8659 226.931 34.7882 226.89 34.7109C225.892 32.8153 224.959 30.9158 224.049 29.0905C223.951 27.6196 223.757 26.1089 223.529 24.9381C223.467 24.5598 223.339 24.1677 223.449 24.1475C223.525 24.1473 223.63 24.2705 224.266 24.7401C224.59 24.973 225.122 25.3072 225.751 25.5588C226.375 25.815 226.968 25.9167 227.018 25.9062C226.979 25.8927 226.941 25.8795 226.906 25.8669C226.517 25.7273 226.232 25.6427 226.17 25.5926C226.119 25.5189 226.31 25.597 227.318 25.1779C227.328 25.1735 227.338 25.169 227.348 25.1645C227.346 25.165 227.345 25.1654 227.343 25.1659C225.642 25.7303 223.476 26.73 221.059 28.1654C216.479 30.8339 213.072 35.5135 211.589 38.7557C211.266 39.4375 210.96 40.1379 210.655 40.8996C210.301 41.7854 209.941 42.7651 209.575 43.8893C209.539 43.9964 209.504 44.1053 209.469 44.216C208.501 47.1099 207.245 50.7922 205.291 56.1692C204.043 59.5949 202.825 62.7935 201.599 65.7819C200.987 67.2692 200.359 68.7391 199.676 70.1927C199.322 70.943 198.96 71.6823 198.494 72.5265C198.257 72.9508 198.004 73.3911 197.624 73.9642C197.212 74.5264 196.946 75.1253 195.408 76.5192C194.887 76.9471 194.021 77.7063 192.278 78.3495C190.072 79.128 188.219 79.2409 186.292 78.9879C184.955 78.7987 183.607 78.3722 182.351 77.679C181.813 77.3824 181.294 77.0412 180.806 76.663C180.755 76.6287 179.927 76.037 179.283 75.4864C178.614 74.9208 177.998 74.3207 177.478 73.7597C176.449 72.6493 175.72 71.6594 175.14 70.8378C172.752 67.4026 171.075 63.6596 169.599 59.9976C168.494 57.2257 167.562 54.5553 166.746 52.112C166.714 52.0169 166.683 51.9218 166.651 51.8266C165.844 49.4076 165.132 47.2766 164.591 45.7627C164.205 44.68 163.791 43.5533 163.351 42.3449C162.12 38.9752 160.665 34.89 158.894 29.3261C157.045 23.5579 156.023 19.7523 155.2 16.9894C155.084 16.5969 155.025 16.2669 155.091 16.1369C155.13 16.0793 155.19 16.0633 155.38 16.2136C155.473 16.2836 155.598 16.3967 155.811 16.5902C156.009 16.7627 156.322 17.0616 156.857 17.4549C156.949 17.5223 157.048 17.592 157.154 17.6634C158.196 18.417 160.785 19.4095 163.093 18.9958C165.154 18.6627 166.198 17.8095 166.695 17.3434C167.201 16.843 167.303 16.5552 167.339 16.4049C167.344 16.3814 167.346 16.3613 167.345 16.3435C166.285 16.9957 165.528 17.579 164.727 19.1734C164.472 19.6897 164.242 20.2926 164.005 20.9425C163.568 22.1391 163.102 23.4972 162.372 24.7741C162.113 25.2288 161.819 25.577 161.519 25.9459C161.2 26.3275 160.875 26.7342 160.636 27.2231C159.879 28.7791 159.179 30.3452 158.551 31.7884C158.519 31.8613 158.487 31.9342 158.456 32.0071C158.363 32.2194 158.271 32.4323 158.179 32.6448C157.225 34.8482 156.438 36.6812 155.836 37.7907C154.772 39.7489 153.924 42.0436 153.064 44.3713C152.408 46.1465 151.744 47.9424 150.968 49.6243C148.746 54.4343 146.062 61.1903 143.288 68.2986C142.533 70.2284 141.646 71.8744 140.563 73.6593C140.503 73.758 140.443 73.8563 140.382 73.9544C140.003 74.5721 139.609 75.1922 139.187 75.8465C138.067 77.5707 136.873 79.4381 135.018 82.1424C133.768 83.7497 133.671 85.1198 130.408 87.9964C129.664 88.5791 128.563 89.2559 127.228 89.6911C126.446 89.9518 125.638 90.1022 125.053 90.1732C123.878 90.3804 122.581 90.4747 121.136 90.2587C119.146 89.9513 117.827 89.1089 116.774 88.2412C116.099 87.6815 115.497 87.0911 114.801 86.4341C114.471 86.1202 114.119 85.7895 113.736 85.4305C113.616 85.3127 113.469 85.1827 113.294 85.0392C112.718 84.5695 111.828 83.9618 110.915 83.2273C110.554 82.9392 110.18 82.6206 109.815 82.292C109.894 82.2646 109.954 82.2271 109.997 82.1954C110.291 81.962 109.628 80.7227 109.161 79.5857C108.972 79.1343 108.799 78.692 108.682 78.3142C108.251 76.9415 107.172 74.7227 106.394 73.0651C106.064 72.3711 105.879 71.6758 105.686 70.8942C105.504 70.1778 105.321 69.4046 105.004 68.4368C104.823 67.8853 104.761 67.4427 104.705 67.0616C104.682 66.8944 104.662 66.7417 104.634 66.6017C104.617 66.521 104.598 66.4444 104.575 66.3718C104.52 66.1996 104.364 66.1036 104.188 65.9943C104.183 65.9908 104.177 65.9874 104.172 65.9839C104.052 65.9147 103.925 65.8378 103.815 65.7246C103.542 65.441 103.324 65.0159 103.25 64.6984C103.215 64.5498 103.21 64.4225 103.205 64.2957C103.199 64.1472 103.194 64.0013 103.142 63.8221C102.896 62.9897 102.47 62.2527 102.03 61.5035C101.542 60.6685 101.04 59.8194 100.725 58.7652C100.627 58.4367 100.561 58.0696 100.496 57.7134C100.428 57.341 100.361 56.9827 100.262 56.694C99.8579 55.524 99.1479 54.5758 98.49 53.7233C98.0534 53.1581 97.6381 52.6308 97.3503 52.104C96.8223 51.1391 96.2691 50.7634 95.8666 50.4965C95.656 50.3552 95.4842 50.2432 95.3726 50.093C95.3033 49.9377 95.2357 49.7833 95.1687 49.6292C95.1184 49.4809 95.0664 49.329 94.9903 49.2026C94.9845 49.193 94.9781 49.184 94.9724 49.1745C94.6087 48.3225 94.2683 47.491 93.927 46.7182C93.5466 45.8546 93.1482 45.0412 92.7417 44.4037C92.3594 43.7763 91.8585 43.2971 91.8727 43.4131C91.8991 43.4598 92.0057 43.7271 92.5725 44.0269C93.0011 44.2588 93.7676 44.4547 94.5508 44.3708C94.5681 44.3691 94.5855 44.3673 94.6027 44.3654C94.9778 44.3258 95.3306 44.2258 95.5788 44.1137C96.5014 43.668 96.4807 43.4037 96.3179 43.4793C96.1405 43.5361 95.7754 43.8292 95.4084 44.2104C94.2677 45.398 93.0528 47.3098 92.6242 49.272C92.4798 49.9246 92.4166 50.5987 92.3554 51.2843C92.3216 51.6656 92.2911 52.0445 92.2448 52.4314C92.1098 52.2995 91.9715 52.206 91.8426 52.1188C91.5768 51.9393 91.3495 51.7837 91.2633 51.3684C91.061 50.3825 90.7171 49.2244 90.1708 49.1308C90.022 49.1071 89.8771 49.0273 89.732 48.9448C89.3693 48.7363 88.9915 48.5304 88.5254 49.2229C88.2077 49.6938 87.4408 50.9488 87.4396 51.9105C87.4386 52.1207 87.5267 52.2789 87.6244 52.4548C87.8011 52.7689 88.0095 53.1364 87.7985 53.9825C87.7634 54.1237 87.7231 54.2771 87.6805 54.4356C87.5097 55.0688 87.3213 55.7806 87.4384 56.1064C87.5734 56.4816 87.8635 56.5017 88.2024 56.5259C88.6434 56.5572 89.1688 56.5961 89.5341 57.4231C89.6063 57.5866 89.5632 57.8419 89.5308 58.0353C89.508 58.1715 89.4913 58.2761 89.5226 58.297C89.5587 58.3204 89.6555 58.3048 89.7783 58.2848C90.2113 58.2146 90.9692 58.092 90.5345 59.4487C90.417 59.8164 90.2439 60.2259 90.0883 60.5956C89.8591 61.1401 89.6696 61.5944 89.7534 61.6886C89.7853 61.724 89.8227 61.754 89.8627 61.7814C89.6993 62.225 89.5366 62.6681 89.3734 63.113C89.055 63.6535 88.7945 64.4687 88.4649 65.4947C88.3853 65.7424 88.2987 66.0104 88.2085 66.2837C87.8801 67.1741 87.5451 68.0796 87.2007 68.9946C86.898 69.7043 86.5427 70.4542 86.1074 71.2525C86.0116 71.4273 85.9146 71.5977 85.8166 71.764C85.6855 71.9836 85.5533 72.1956 85.4204 72.4012C84.7755 73.393 84.0907 74.2828 83.4106 75.1719C83.0283 75.6631 82.6407 76.1717 82.2719 76.6737C82.3333 76.4479 82.3839 76.24 82.4089 76.0738C82.5796 74.9366 82.2942 74.3727 82.0398 73.831C81.8664 73.4822 81.7022 73.1541 81.6861 72.6933C81.6579 71.8448 81.2822 71.7974 81.0066 71.7582C80.8634 71.7382 80.7468 71.7201 80.7164 71.6012C80.6923 71.5053 80.7322 71.3176 80.7738 71.1219C80.7992 71.0024 80.8252 70.8795 80.8375 70.774C80.8427 70.7291 80.8454 70.6874 80.8445 70.6504C80.8375 70.3701 80.8171 70.1503 80.784 69.9824C80.6609 69.3829 80.3727 69.4621 79.9843 69.6994C79.9044 69.7494 79.8202 69.8061 79.7324 69.8652C79.5671 69.9763 79.3888 70.0951 79.201 70.193C78.9893 70.3033 78.7654 70.3871 78.5337 70.4049C78.1286 70.406 78.0064 70.336 78.0465 69.7831C78.0511 69.7204 78.0578 69.6514 78.0664 69.5754C78.0204 69.6308 77.9745 69.6861 77.9286 69.7412C77.5873 70.1514 77.2497 70.5506 76.9056 70.967C76.8436 71.1817 76.9104 71.3839 77.0361 71.6778C77.261 72.2026 76.9271 73.5507 76.6605 74.603C76.5431 75.0747 76.4276 75.519 76.4005 75.7642C76.2492 77.0847 76.7843 76.8983 77.2672 76.7075C77.5299 76.6103 77.7724 76.5218 77.8689 76.6965C77.9103 76.771 77.9981 76.7188 78.0875 76.6661C78.1566 76.6253 78.2272 76.583 78.2778 76.5989C78.6461 76.7118 78.6413 77.5458 78.6366 78.3092C78.6376 78.7372 78.6265 79.1767 78.6938 79.4302C78.7139 79.5086 78.7397 79.5746 78.7654 79.6369C78.8029 79.7278 78.8381 79.8159 78.8507 79.937C78.8789 80.2145 78.7663 80.7448 78.65 81.298C78.5855 81.5947 78.5193 81.8995 78.4684 82.1873C78.4047 82.5545 78.4901 82.7494 78.5849 82.9393C78.6511 83.0752 78.7186 83.2169 78.7346 83.4323C78.7671 83.813 78.5513 84.5147 78.3471 85.1593C78.2566 85.4439 78.1755 85.703 78.1097 85.9425C78.0831 86.0394 78.0887 86.093 78.1175 86.1164C77.7971 87.184 77.4774 88.2198 77.1303 89.25C76.6678 90.6095 76.1904 91.932 75.4519 93.4141C74.5032 94.8586 74.42 96.6367 70.1086 98.9401C69.6239 99.1523 69.1497 99.3218 68.6718 99.462C66.6068 99.9198 64.7714 100.632 60.8979 98.9859C60.5826 98.829 60.2227 98.6315 59.8641 98.4041C57.8328 97.0925 56.737 95.6437 55.8498 94.4097C54.961 93.1364 54.1477 91.9246 53.3364 90.7441C51.4258 87.4419 49.827 84.2421 48.2506 81.0119C48.1895 80.8857 48.1279 80.7585 48.0658 80.6301C47.8254 80.1339 47.5882 79.6425 47.349 79.1467C47.2641 78.2414 47.0507 77.2113 46.6858 76.0275C46.0126 73.8272 45.0078 71.7199 43.8244 69.2384C42.9499 67.4046 41.9781 65.3657 40.9646 62.9261C39.2604 58.8265 37.4465 54.6624 35.1784 50.0732C33.3714 46.4197 31.2845 42.3597 29.4849 39.1151C29.4491 39.0507 29.4137 38.987 29.3786 38.9241C28.9684 38.1878 28.5832 37.4961 28.2152 36.8467C27.137 34.9564 26.2095 32.7327 25.2295 31.1494C25.0349 30.8238 24.7785 30.5271 24.7897 30.4772C24.7887 30.443 25.0249 30.5456 25.388 30.4325C25.7332 30.3044 25.7361 30.1697 25.6329 30.2612C25.5904 30.2935 25.538 30.3384 25.4786 30.3935C24.252 31.5611 23.2762 32.8645 22.8841 33.9298C22.6941 34.4509 22.6023 35.0331 22.5269 35.58C22.4651 35.9811 22.4108 36.3647 22.3199 36.7224C21.7525 37.4523 21.1963 38.1811 20.637 38.9254C19.4528 40.0955 17.7492 42.0722 16.7133 44.3306C16.1592 45.121 15.6152 45.908 15.0939 46.6685C13.9546 48.3383 12.8584 49.9875 11.7726 51.6678C11.4229 52.2072 11.0577 52.7792 10.7096 53.3267C10.7062 53.3319 10.7028 53.3372 10.6994 53.3424C9.98575 54.467 9.27404 55.611 8.58974 56.7275C8.29323 57.2121 8.00098 57.6932 7.70997 58.176C6.96547 59.4125 6.23427 60.6512 5.51973 61.8834C5.45313 61.9982 5.38642 62.1135 5.31961 62.2292C5.3185 62.2311 5.3174 62.2331 5.31629 62.235C5.00227 62.7793 4.70057 63.3088 4.3958 63.8558C3.79993 64.9249 3.21644 66.0138 2.67877 67.1053C1.82791 68.8671 0.987489 70.6779 0.782427 72.4628C0.751702 72.7541 0.712299 73.0334 0.655672 73.2513C0.598985 73.4684 0.525263 73.6035 0.431821 73.6139C0.43182 73.6139 0.43182 73.6139 0.43182 73.6139C0.431694 73.6139 0.431568 73.6139 0.431442 73.6139C0.338715 73.6244 0.231173 73.509 0.142231 73.2855C0.0536187 73.0628 -0.00275552 72.7488 4.14206e-05 72.4199C0.0447602 70.3936 0.762587 68.4541 1.46904 66.5685C1.91917 65.4026 2.41342 64.2453 2.92101 63.1095C3.1799 62.5313 3.43598 61.9717 3.70425 61.3973C3.70519 61.3952 3.70614 61.3932 3.70708 61.3912C3.76509 61.2669 3.82299 61.1429 3.88076 61.0194C4.48839 59.7207 5.11358 58.4111 5.75071 57.103C5.99918 56.5921 6.24895 56.0822 6.5025 55.5686C7.08771 54.3813 7.70087 53.1623 8.31401 51.9619C8.3177 51.9547 8.32139 51.9475 8.32508 51.9403C8.62079 51.3602 8.93312 50.7552 9.22965 50.1824C10.162 48.3871 11.1027 46.6167 12.0858 44.8181C12.5894 43.8921 13.1294 42.9193 13.6632 41.9684C13.9635 41.434 14.262 40.9061 14.5592 40.3847C14.7237 40.0971 14.8889 39.8098 15.053 39.5254C17.3838 35.5378 19.5833 31.718 22.5028 27.7856C22.5757 27.6958 22.6454 27.6117 22.7151 27.5306C22.9164 27.3137 23.2346 26.9275 23.9444 26.6043C24.6556 26.2653 25.6306 26.3084 26.1584 26.4926C27.254 26.8732 27.6131 27.2773 28.0399 27.6191C28.8131 28.3076 29.3408 28.9294 29.8726 29.5604C30.9094 30.811 31.8248 32.0645 32.6997 33.312C33.3115 34.1877 33.9132 35.0893 34.4775 35.9715C34.5178 36.0346 34.5583 36.0982 34.5989 36.1622C38.1131 41.7091 41.4083 47.3072 44.6931 52.8987C48.5423 59.4677 52.3277 66.0522 56.1165 72.6073C56.6749 73.574 57.215 74.5045 57.774 75.4671C57.8449 75.5889 57.9152 75.7096 57.9849 75.8292C59.461 78.3621 60.9356 80.8484 62.464 83.2259C63.2176 84.3932 63.9984 85.5534 64.7505 86.5351C65.4698 87.5123 66.3406 88.3157 66.2919 88.1619C66.2982 88.1582 66.3061 88.1578 66.3579 88.1788C65.6652 87.8396 65.4941 87.9 65.4508 87.8748C65.412 87.8676 65.5079 87.8497 65.5518 87.816C65.5717 87.802 65.5828 87.7881 65.5652 87.7858C64.7926 88.1071 64.7241 88.2868 64.7452 88.2115C64.7796 88.1487 64.9349 87.922 65.099 87.6339C65.4346 87.0525 65.8299 86.2406 66.203 85.3901C66.9583 83.6683 67.6772 81.7462 68.3705 79.794C69.751 75.8861 71.0419 71.8216 72.309 67.746C72.3796 67.5186 72.4506 67.2892 72.522 67.0577C74.1589 61.6387 75.4254 55.6715 77.0583 49.594C77.8892 46.5352 78.7734 43.4432 80.1073 40.1171C80.7941 38.4451 81.5522 36.7323 82.8267 34.7546C84.24 32.9552 85.4984 29.9255 91.5612 28.3143C91.6009 28.3065 91.6407 28.2988 91.6807 28.2914C97.6958 27.3855 100.981 30.396 102.725 31.8208C104.585 33.5009 105.716 35.0007 106.757 36.4415C108.783 39.3192 110.232 41.9963 111.604 44.6705C114.301 49.9819 116.49 55.2529 118.615 60.2225C118.706 60.4352 118.796 60.6444 118.885 60.8499C120.961 65.7292 124.025 71.7185 125.304 72.297C125.209 72.2083 125.102 72.1178 124.987 72.0311C124.263 71.468 123.366 71.3662 123.302 71.3952C123.263 71.3984 123.296 71.4035 123.384 71.3905C123.034 71.4178 122.435 71.5066 121.854 71.6798C119.323 72.5303 118.9 73.3982 118.745 73.4592C118.609 73.5958 118.751 73.417 118.902 73.1714C119.227 72.6577 119.691 71.8413 120.143 70.9868C121.053 69.2651 121.993 67.3154 122.921 65.3428C122.965 65.2494 123.009 65.155 123.054 65.0597C123.74 63.5928 124.425 62.0888 125.101 60.5843C127.901 54.3441 130.593 48.0844 133.356 41.6789C134.195 39.7313 135.056 37.7323 135.941 35.6793Z" fill="#2B61AB"/>
</svg>
