<svg width="809" height="279" viewBox="0 0 809 279" fill="none" xmlns="http://www.w3.org/2000/svg">
<path d="M91.882 242.738C92.332 244.232 91.2698 245.978 91.5726 247.51C91.9481 249.41 93.6291 251.083 93.7659 253.038C93.9012 254.985 93.9294 256.948 93.8774 258.931C93.826 260.916 93.6921 262.909 93.5051 264.919C93.3177 266.926 93.0761 268.945 92.8048 270.969C92.6208 272.346 92.4227 273.725 92.2192 275.102C92.1301 275.707 92.0405 276.314 91.9497 276.917C91.8818 277.369 91.8141 277.82 91.7465 278.273C91.7368 278.336 91.6611 278.409 91.5313 278.478C91.4014 278.547 91.229 278.606 91.0461 278.643C90.863 278.679 90.6809 278.691 90.5348 278.677C90.3891 278.663 90.292 278.624 90.2597 278.57C90.0272 278.173 89.7949 277.778 89.5628 277.383C89.3053 276.944 89.0471 276.504 88.7906 276.064C89.5267 275.84 90.0759 275.624 90.2893 275.383C90.3982 275.26 90.4232 275.108 90.2628 275.031C90.1187 274.962 89.8811 274.936 89.6546 274.911C89.4178 274.886 89.1929 274.861 89.1011 274.79C88.945 274.669 88.5985 274.593 88.2345 274.514C88.102 274.486 87.967 274.456 87.8382 274.424C87.5956 274.003 87.3546 273.584 87.1147 273.163C87.1599 272.973 87.1927 272.8 87.1348 272.67C87.0829 272.553 86.9021 272.473 86.6826 272.402C86.6458 272.336 86.6089 272.271 86.572 272.206C86.3347 271.786 86.1 271.365 85.866 270.942C85.9964 270.55 86.1178 270.143 86.1085 269.648C86.1046 269.436 86.1721 269.209 86.2372 268.992C86.3333 268.672 86.4237 268.371 86.2685 268.154C86.1647 268.009 86.2376 267.821 86.3104 267.633C86.4083 267.383 86.5051 267.128 86.1757 266.982C85.9686 266.89 85.7243 266.817 85.4977 266.749C85.1373 266.641 84.8221 266.546 84.7754 266.414C84.6877 266.165 84.4063 265.991 84.1578 265.836C83.8588 265.649 83.608 265.493 83.8014 265.274C83.8307 265.241 83.8707 265.202 83.9161 265.157C84.1558 264.924 84.5393 264.551 84.2164 264.19C84.1013 264.061 83.8505 263.97 83.6039 263.878C83.2451 263.744 82.8968 263.615 82.9947 263.384C83.0093 263.35 83.0897 263.301 83.1631 263.256C83.2564 263.2 83.3379 263.15 83.2578 263.146C83.0226 263.135 82.7574 263.095 82.4688 263.053C82.2568 263.022 82.032 262.988 81.798 262.963C81.5699 262.465 81.3448 261.955 81.1278 261.452C81.0282 261.221 80.93 260.99 80.8332 260.76C81.1461 260.569 81.4248 260.381 81.6283 260.202C81.8941 259.967 81.9412 259.722 82.0028 259.407C82.0481 259.175 82.1014 258.906 82.2544 258.575C82.5361 257.955 82.3393 257.42 82.0606 257.108C82.0016 257.042 81.9396 256.977 81.8725 256.907C81.6177 256.641 81.2974 256.302 80.8857 255.633C80.4972 255.006 80.3133 254.424 80.1777 254.001C80.1082 253.783 80.0516 253.604 79.9835 253.469C79.867 253.237 79.747 252.948 79.6272 252.66C79.4396 252.21 79.2519 251.761 79.0721 251.515C79.0082 251.428 78.9328 251.339 78.852 251.242C78.6279 250.975 78.3593 250.66 78.1449 250.182C77.9198 249.68 77.9374 249.342 78.0488 248.973C78.094 248.823 78.3565 248.647 78.6269 248.461C79.0109 248.2 79.4117 247.927 79.2313 247.704C79.1892 247.652 79.1086 247.604 79.0241 247.554C78.8688 247.461 78.7007 247.362 78.737 247.218C78.7496 247.168 78.8193 247.113 78.8875 247.058C78.9627 246.998 79.0361 246.939 79.031 246.891C79.0115 246.705 78.9564 246.53 78.9075 246.377C78.8444 246.178 78.7918 246.013 78.8387 245.895C78.9223 245.684 78.7732 245.503 78.6215 245.32C78.5049 245.176 78.3868 245.032 78.3714 244.873C78.3272 244.418 78.0001 243.862 77.5277 243.298C77.3496 243.087 77.4869 242.852 77.6636 242.551C77.7742 242.367 77.8979 242.145 77.9706 241.895C78.0117 241.752 77.8313 241.676 77.6647 241.605C77.5112 241.54 77.3692 241.48 77.4218 241.379C77.4683 241.289 77.7246 241.186 77.9681 241.089C78.2389 240.98 78.4937 240.878 78.4257 240.808C78.3896 240.771 78.2453 240.743 78.0742 240.712C78.0065 240.7 77.9348 240.686 77.8634 240.671C77.9177 240.662 77.9661 240.652 78.0026 240.645C78.2609 240.592 78.3797 240.48 78.4961 240.371C78.5425 240.327 78.5884 240.283 78.6428 240.244C78.8432 240.1 78.841 239.906 78.8018 239.767C78.7853 239.708 78.8543 239.637 78.9348 239.555C79.0063 239.482 79.087 239.4 79.125 239.309C79.1467 239.257 79.2144 239.206 79.2709 239.165C79.3117 239.134 79.3466 239.107 79.3532 239.088C79.3589 239.072 79.2825 239.075 79.1964 239.079C79.1344 239.081 79.0673 239.084 79.0222 239.08C78.9145 239.07 78.8759 239.037 78.9027 239.002C78.9152 238.987 78.9419 238.971 78.9685 238.955C78.9995 238.936 79.0308 238.918 79.0392 238.899C79.0781 238.815 78.9791 238.761 78.8763 238.705C78.7633 238.644 78.646 238.581 78.7015 238.472C78.719 238.438 78.7665 238.396 78.8126 238.355C78.8609 238.312 78.9074 238.27 78.9161 238.241C78.9515 238.123 78.7466 238.062 78.5581 238.007C78.4328 237.97 78.3147 237.934 78.279 237.884C78.2139 237.794 77.9814 237.786 77.8097 237.78C77.7207 237.777 77.6477 237.775 77.623 237.762C77.6259 237.745 77.6299 237.727 77.6346 237.71C77.6479 237.692 77.6616 237.673 77.6533 237.66C77.6527 237.659 77.6515 237.659 77.6509 237.658C77.6863 237.558 77.7446 237.456 77.8028 237.354C77.9336 237.127 78.0634 236.903 77.9272 236.725C77.8979 236.688 77.7968 236.66 77.6945 236.634C77.569 236.602 77.4407 236.569 77.437 236.509C77.4283 236.367 77.5502 236.197 77.6706 236.031C77.8515 235.78 78.0289 235.539 77.7512 235.407C77.6592 235.362 77.5149 235.329 77.3696 235.297C77.2886 235.279 77.207 235.261 77.1347 235.241C77.2573 235.223 77.3718 235.203 77.4785 235.184C77.6986 235.146 77.8869 235.113 78.0526 235.112C78.4441 235.11 78.9794 235.089 79.3543 235.001C79.456 234.977 79.5704 234.955 79.6856 234.933C79.9747 234.879 80.2699 234.823 80.3877 234.723C80.4671 234.656 80.6467 234.489 80.4101 234.456C80.3586 234.449 80.2613 234.459 80.1533 234.47C79.9591 234.489 79.7292 234.511 79.6613 234.448C79.6499 234.438 79.6391 234.426 79.6288 234.413C79.5875 234.364 79.5419 234.309 79.3845 234.318C79.2031 234.328 79.0031 234.376 78.7698 234.432C78.466 234.505 78.1051 234.592 77.6555 234.627C77.5666 234.634 77.5324 234.618 77.5065 234.607C77.4882 234.599 77.4737 234.593 77.4475 234.597C77.4174 234.603 77.356 234.619 77.2782 234.641C77.0041 234.716 76.5249 234.846 76.4793 234.732C76.467 234.701 76.4823 234.659 76.4963 234.622C76.5168 234.567 76.5337 234.522 76.4532 234.533C76.4227 234.538 76.3898 234.543 76.3557 234.549C76.3573 234.509 76.3583 234.467 76.3594 234.425C76.4432 234.354 76.4199 234.284 76.3905 234.197C76.3834 234.176 76.3762 234.154 76.3699 234.13C76.3729 234.048 76.3759 233.967 76.3795 233.885C76.4066 233.816 76.4582 233.737 76.5474 233.647C76.7261 233.466 77.0441 233.277 77.3544 233.089C77.4848 233.008 77.6143 232.928 77.7314 232.85C77.7513 232.866 77.7737 232.88 77.8022 232.888C77.9973 232.945 78.3499 232.909 78.6739 232.874C78.8895 232.851 79.0928 232.83 79.2285 232.837C79.4772 232.851 79.7507 232.786 79.953 232.738C80.0579 232.713 80.1439 232.692 80.197 232.69C80.2396 232.688 80.2623 232.7 80.2858 232.712C80.3063 232.722 80.3277 232.733 80.3628 232.736C80.7897 232.765 81.016 232.681 81.3453 232.558C81.5269 232.49 81.74 232.411 82.0354 232.332C82.3488 232.252 82.4422 232.237 82.581 232.27C82.7271 232.19 82.8732 232.11 83.0193 232.029C83.0052 232.013 82.9047 232.02 82.7383 232.035C82.4416 232.064 82.3105 231.968 82.2081 231.894C82.1607 231.859 82.1192 231.829 82.0704 231.818C81.8105 231.758 81.4887 231.861 81.2054 231.951C81.0495 232.001 80.9051 232.047 80.7894 232.06C80.7399 232.066 80.6932 232.083 80.6456 232.1C80.6088 232.113 80.5714 232.127 80.5318 232.136C80.244 232.199 80.0161 232.18 79.8047 232.162C79.6836 232.152 79.5674 232.143 79.4486 232.149C79.4124 232.151 79.3757 232.155 79.3402 232.158C79.2882 232.163 79.2387 232.168 79.1954 232.167C79.0967 232.167 79.024 232.138 78.9448 232.106C78.9041 232.09 78.8617 232.073 78.8131 232.059C78.75 232.04 78.6337 232.054 78.5122 232.068C78.4263 232.078 78.3379 232.088 78.2631 232.088C78.1279 232.087 78.069 232.04 78.0144 231.997C77.9906 231.978 77.9671 231.96 77.939 231.946C77.9275 231.941 77.9071 231.941 77.8801 231.946C77.7718 231.882 77.6601 231.811 77.5521 231.748C77.0086 231.426 76.5441 231.178 76.7087 230.575C76.7403 230.463 76.706 230.36 76.6396 230.263C76.6773 229.9 76.7121 229.51 76.7567 229.154C76.7878 229.138 76.8182 229.122 76.8479 229.106C77.0497 228.992 77.2167 228.873 77.3455 228.752C77.6228 228.49 77.6474 228.284 77.6778 228.048C77.6976 227.862 77.7203 227.659 77.8502 227.405C78.0681 226.977 78.2346 226.545 78.2628 226.088C78.2937 225.644 78.2712 225.148 78.2169 224.8C78.1875 224.611 78.3694 224.371 78.5326 224.128C78.7665 223.802 78.9691 223.494 78.5427 223.473C78.4064 223.466 78.1795 223.488 77.9593 223.511C77.802 223.526 77.6479 223.538 77.5315 223.543C77.5435 223.459 77.5555 223.377 77.5686 223.298C77.7913 223.103 78.0023 222.807 77.6573 222.719C77.6688 222.635 77.6809 222.555 77.6948 222.48C77.7171 222.304 77.7444 222.147 77.7679 221.989C77.7774 221.941 77.7841 221.887 77.792 221.837C77.7921 221.837 77.7922 221.836 77.7923 221.836C77.8101 221.74 77.8241 221.642 77.847 221.569C77.8554 221.535 77.8663 221.507 77.8802 221.485C77.8977 221.457 77.917 221.437 77.965 221.449C78.02 221.457 78.0558 221.506 78.3456 221.614C78.4731 221.659 78.756 221.701 78.9807 221.631C79.2174 221.562 79.3397 221.445 79.4061 221.366C79.5664 221.124 79.4373 221.151 79.3839 221.172C79.2693 221.226 79.1386 221.356 79.0098 221.489C78.9885 221.512 78.938 221.525 78.8673 221.525C78.7964 221.525 78.7114 221.512 78.6269 221.487C78.5425 221.462 78.4635 221.428 78.404 221.39C78.3446 221.352 78.3102 221.314 78.3047 221.283C78.2734 221.093 78.2402 220.907 78.2384 220.695C78.2445 220.563 78.2261 220.425 78.3707 220.213C78.4434 220.069 78.8211 219.929 79.0392 220.021C79.4213 220.16 79.5154 220.291 79.6697 220.411C79.7203 220.451 79.7703 220.495 79.8206 220.543C79.9303 220.639 80.0377 220.749 80.135 220.845C80.1356 220.846 80.1361 220.847 80.1367 220.847C80.1861 220.898 80.2355 220.952 80.2804 220.996C80.4243 221.149 80.5571 221.291 80.6931 221.453C80.7618 221.527 80.8315 221.609 80.9022 221.695C80.9425 221.746 80.9789 221.786 81.0165 221.83C81.0366 221.854 81.0567 221.878 81.0771 221.903C81.5514 222.479 81.9897 223.054 82.4116 223.639C82.8326 224.222 83.2364 224.818 83.6223 225.401C84.0129 226.005 84.3816 226.581 84.7446 227.188C84.7661 227.224 84.7877 227.26 84.8093 227.297C87.0651 231.047 88.9987 234.874 90.5161 238.772C90.7345 239.331 90.9475 239.916 91.1457 240.479C91.3473 241.057 91.5345 241.613 91.7156 242.194C91.771 242.369 91.8269 242.554 91.882 242.738Z" fill="#F7C43C"/>
<path d="M57.0269 238.603C56.548 240.138 54.6778 241.031 54.0606 242.51C53.2925 244.349 53.7368 246.727 52.7422 248.479C51.7514 250.221 50.6603 251.926 49.4941 253.596C48.3274 255.267 47.0843 256.908 45.7898 258.528C44.4971 260.142 43.1506 261.742 41.7762 263.327C40.8435 264.402 39.8958 265.475 38.9439 266.544C38.5267 267.012 38.1082 267.481 37.6895 267.948C37.3767 268.297 37.0638 268.646 36.7507 268.996C36.7069 269.044 36.6024 269.065 36.4557 269.051C36.3088 269.037 36.1327 268.991 35.9604 268.919C35.788 268.847 35.6304 268.755 35.5174 268.661C35.4047 268.567 35.3466 268.479 35.3508 268.414C35.3835 267.944 35.4159 267.474 35.4483 267.005C35.4842 266.484 35.5205 265.961 35.5576 265.441C36.2946 265.662 36.872 265.786 37.1858 265.7C37.3458 265.655 37.4533 265.539 37.364 265.383C37.2838 265.242 37.1019 265.086 36.9284 264.937C36.747 264.782 36.5747 264.634 36.539 264.522C36.4783 264.331 36.2339 264.071 35.9771 263.799C35.8837 263.7 35.7884 263.599 35.6999 263.499C35.7374 263.003 35.776 262.508 35.8163 262.011C35.9618 261.874 36.0871 261.744 36.1127 261.6C36.1357 261.471 36.0312 261.301 35.89 261.117C35.8964 261.04 35.9028 260.964 35.9091 260.887C35.951 260.394 35.9962 259.898 36.0415 259.406C36.3715 259.144 36.7027 258.864 36.9765 258.432C37.0944 258.246 37.2784 258.091 37.4551 257.942C37.7161 257.722 37.9606 257.517 37.9557 257.242C37.9521 257.059 38.1197 256.938 38.2867 256.817C38.5108 256.655 38.7343 256.493 38.5437 256.184C38.4238 255.989 38.2628 255.79 38.1134 255.604C37.8757 255.31 37.6684 255.051 37.705 254.911C37.7739 254.647 37.6397 254.338 37.5212 254.066C37.3787 253.74 37.2589 253.466 37.543 253.387C37.5861 253.375 37.6414 253.365 37.7042 253.352C38.0356 253.286 38.5654 253.179 38.5029 252.687C38.4806 252.512 38.3249 252.292 38.172 252.076C37.9496 251.761 37.7328 251.458 37.9455 251.313C37.9773 251.292 38.0717 251.295 38.1579 251.297C38.2675 251.301 38.3631 251.304 38.2989 251.256C38.1104 251.114 37.9129 250.931 37.6979 250.732C37.5399 250.586 37.3725 250.432 37.1927 250.278C37.2877 249.719 37.3867 249.164 37.4937 248.606C37.5423 248.351 37.592 248.097 37.6427 247.845C38.01 247.857 38.3464 247.855 38.617 247.815C38.9707 247.762 39.1489 247.578 39.3787 247.342C39.5478 247.168 39.745 246.966 40.0596 246.767C40.6431 246.397 40.785 245.824 40.7305 245.4C40.719 245.311 40.7048 245.219 40.6889 245.122C40.6283 244.751 40.5553 244.279 40.5932 243.475C40.6287 242.715 40.8048 242.116 40.9329 241.676C40.9983 241.451 41.0547 241.262 41.0752 241.107C41.1101 240.843 41.1741 240.529 41.2379 240.215C41.3364 239.728 41.441 239.225 41.4298 238.917C41.426 238.808 41.4141 238.689 41.4016 238.561C41.3667 238.209 41.3262 237.78 41.42 237.25C41.5181 236.695 41.7228 236.42 42.0283 236.158C42.152 236.052 42.4703 236.047 42.7989 236.042C43.2651 236.035 43.7516 236.028 43.7281 235.737C43.7227 235.669 43.683 235.584 43.6418 235.493C43.5666 235.324 43.4848 235.142 43.5971 235.038C43.6363 235.002 43.7259 234.993 43.8137 234.984C43.9102 234.974 44.0047 234.964 44.0286 234.919C44.1179 234.749 44.1706 234.571 44.217 234.413C44.2766 234.21 44.3274 234.039 44.4344 233.962C44.6249 233.825 44.6058 233.583 44.5855 233.338C44.57 233.152 44.5535 232.963 44.6305 232.821C44.8522 232.408 44.9051 231.732 44.8327 230.991C44.807 230.707 45.0561 230.58 45.375 230.42C45.5734 230.32 45.7984 230.21 46.0016 230.036C46.1175 229.936 46.0126 229.768 45.9158 229.612C45.8265 229.468 45.7439 229.336 45.8459 229.278C45.9359 229.226 46.2066 229.283 46.4637 229.337C46.7497 229.397 47.0188 229.453 47.0029 229.354C46.9945 229.301 46.8903 229.198 46.7664 229.075C46.7174 229.027 46.6656 228.975 46.615 228.923C46.6653 228.945 46.7107 228.964 46.7451 228.979C46.9884 229.08 47.1498 229.053 47.3092 229.024C47.3728 229.013 47.4356 229.001 47.503 228.998C47.7512 228.988 47.861 228.819 47.909 228.677C47.9293 228.616 48.0268 228.595 48.1406 228.569C48.2416 228.547 48.3555 228.522 48.4393 228.465C48.4872 228.432 48.5719 228.427 48.6426 228.424C48.6937 228.421 48.7374 228.419 48.7537 228.406C48.7677 228.396 48.7027 228.356 48.6294 228.31C48.5766 228.278 48.5195 228.242 48.4846 228.213C48.4009 228.145 48.3884 228.094 48.4303 228.08C48.4497 228.073 48.4809 228.074 48.512 228.076C48.5482 228.078 48.5847 228.079 48.6022 228.068C48.6829 228.018 48.6322 227.915 48.5795 227.809C48.5216 227.692 48.4614 227.571 48.5697 227.509C48.6039 227.489 48.6674 227.48 48.729 227.471C48.7935 227.461 48.8558 227.452 48.8797 227.432C48.9766 227.351 48.8428 227.182 48.7196 227.027C48.6379 226.923 48.56 226.828 48.5596 226.764C48.5583 226.649 48.371 226.51 48.2328 226.408C48.1612 226.355 48.1023 226.311 48.0895 226.286C48.1018 226.273 48.1153 226.26 48.1292 226.247C48.1505 226.24 48.1724 226.231 48.1731 226.216C48.1731 226.214 48.1727 226.213 48.1727 226.212C48.2592 226.147 48.3662 226.092 48.4726 226.038C48.7119 225.917 48.9466 225.801 48.9384 225.568C48.9369 225.517 48.8689 225.437 48.7998 225.356C48.7151 225.257 48.6284 225.156 48.6598 225.102C48.7346 224.976 48.933 224.9 49.128 224.826C49.4214 224.715 49.706 224.612 49.5569 224.333C49.5073 224.242 49.4073 224.132 49.3064 224.021C49.2501 223.96 49.1933 223.898 49.1454 223.84C49.2568 223.894 49.3625 223.943 49.461 223.988C49.6642 224.08 49.8381 224.16 49.9748 224.254C50.298 224.476 50.7501 224.764 51.1097 224.902C51.2072 224.94 51.3139 224.987 51.4211 225.034C51.6903 225.153 51.9652 225.274 52.1195 225.256C52.2236 225.244 52.4675 225.205 52.2914 225.043C52.2531 225.007 52.1676 224.96 52.0726 224.907C51.9019 224.813 51.6998 224.701 51.6802 224.609C51.6769 224.593 51.6748 224.577 51.6734 224.561C51.668 224.495 51.6622 224.422 51.5276 224.34C51.3725 224.245 51.1803 224.172 50.9562 224.086C50.6644 223.975 50.3177 223.842 49.9279 223.615C49.8509 223.57 49.8317 223.537 49.817 223.513C49.8067 223.495 49.7983 223.482 49.7741 223.471C49.7463 223.458 49.6861 223.437 49.61 223.411C49.3414 223.317 48.8716 223.156 48.9011 223.03C48.9095 222.995 48.9468 222.967 48.9804 222.942C49.0298 222.905 49.0706 222.874 48.998 222.838C48.9704 222.824 48.9403 222.81 48.9088 222.795C48.934 222.76 48.9592 222.725 48.9843 222.69C49.0943 222.677 49.1156 222.605 49.1415 222.514C49.1478 222.492 49.1548 222.469 49.163 222.446C49.2129 222.378 49.2625 222.311 49.3124 222.244C49.375 222.2 49.4625 222.164 49.5883 222.138C49.8421 222.081 50.2154 222.096 50.5799 222.112C50.7335 222.119 50.8859 222.126 51.0269 222.127C51.0339 222.152 51.0443 222.177 51.0629 222.2C51.1906 222.359 51.5006 222.531 51.7859 222.689C51.9757 222.794 52.1546 222.894 52.2612 222.979C52.4564 223.136 52.7185 223.237 52.9124 223.312C53.013 223.351 53.0953 223.383 53.1402 223.412C53.1761 223.435 53.1877 223.459 53.1997 223.483C53.2102 223.504 53.2212 223.526 53.2485 223.549C53.5803 223.823 53.8153 223.88 54.1573 223.963C54.346 224.008 54.5672 224.062 54.8552 224.165C55.159 224.276 55.2445 224.317 55.3382 224.427C55.5052 224.441 55.6721 224.455 55.839 224.469C55.8371 224.447 55.7507 224.395 55.6058 224.312C55.3469 224.163 55.2941 224.008 55.2525 223.888C55.2333 223.832 55.2163 223.784 55.1827 223.746C55.0036 223.548 54.6803 223.45 54.3959 223.363C54.2394 223.315 54.0945 223.271 53.9919 223.216C53.948 223.192 53.8999 223.18 53.8508 223.167C53.8129 223.157 53.7743 223.147 53.7368 223.132C53.4642 223.02 53.2882 222.874 53.1247 222.738C53.031 222.66 52.941 222.586 52.8397 222.524C52.8088 222.505 52.7768 222.486 52.7457 222.469C52.7003 222.443 52.657 222.419 52.6216 222.394C52.5409 222.337 52.4978 222.271 52.4513 222.199C52.4279 222.161 52.4033 222.121 52.372 222.08C52.3315 222.027 52.2285 221.971 52.1209 221.913C52.0449 221.871 51.9667 221.829 51.9059 221.785C51.7959 221.705 51.776 221.629 51.7574 221.559C51.7493 221.528 51.7409 221.499 51.726 221.47C51.7199 221.459 51.703 221.447 51.6779 221.436C51.629 221.313 51.5764 221.195 51.5245 221.079C51.4601 220.937 51.3975 220.799 51.3468 220.668C51.2 220.249 51.1597 219.895 51.5258 219.585C51.6186 219.505 51.6531 219.394 51.657 219.27C51.9032 218.98 52.1617 218.669 52.4143 218.381C52.687 218.417 52.9264 218.422 53.1304 218.388C53.5121 218.326 53.6561 218.163 53.8231 217.978C53.9505 217.831 54.0918 217.67 54.3498 217.531C54.7878 217.287 55.1817 217.024 55.4842 216.654C55.7813 216.294 56.0762 215.848 56.2467 215.532C56.3424 215.353 56.6424 215.251 56.9202 215.16C57.316 215.019 57.6642 214.909 57.3512 214.61C57.2506 214.516 57.0614 214.387 56.8774 214.263C56.7466 214.173 56.6178 214.089 56.5265 214.015C56.592 213.949 56.6564 213.885 56.7206 213.823C57.0228 213.799 57.381 213.691 57.1887 213.373C57.2567 213.307 57.3235 213.243 57.3887 213.185C57.5333 213.043 57.6724 212.917 57.8158 212.782C57.8617 212.741 57.9095 212.696 57.9573 212.651C57.9578 212.65 57.9583 212.65 57.9588 212.649C58.0537 212.562 58.1508 212.471 58.2455 212.386C58.2849 212.352 58.328 212.31 58.3686 212.273C58.4711 212.182 58.5761 212.085 58.6814 211.989C58.7364 211.941 58.7922 211.89 58.8481 211.84C58.9383 211.761 59.0312 211.676 59.122 211.597C59.2712 211.465 59.4199 211.337 59.5708 211.207C59.5954 211.187 59.6478 211.179 59.7182 211.187C59.7887 211.196 59.8714 211.22 59.952 211.255C60.0325 211.29 60.1062 211.335 60.1602 211.381C60.2139 211.427 60.2427 211.47 60.244 211.502C60.2496 211.699 60.2568 211.891 60.262 212.088C60.2668 212.206 60.2695 212.33 60.2738 212.448C60.276 212.522 60.2775 212.597 60.2802 212.669C60.2834 212.81 60.2863 212.951 60.2908 213.087C60.2923 213.141 60.2916 213.201 60.2944 213.252C60.2984 213.378 60.2994 213.51 60.302 213.639C60.302 213.639 60.302 213.64 60.302 213.641C60.3025 213.706 60.3032 213.77 60.3053 213.831C60.3074 214.026 60.3125 214.212 60.3104 214.413C60.3138 214.511 60.3135 214.615 60.3125 214.722C60.311 214.784 60.3136 214.837 60.314 214.894C60.3141 214.924 60.3139 214.955 60.3135 214.987C60.3133 215.714 60.3043 216.436 60.2856 217.154C60.2676 217.869 60.2411 218.579 60.203 219.29C60.16 220.013 60.1235 220.695 60.0622 221.412C59.9916 222.337 59.9105 223.259 59.8113 224.192C59.4576 227.676 58.9254 231.124 58.1519 234.456C58.0096 235.066 57.8604 235.665 57.6997 236.268C57.5396 236.869 57.3764 237.453 57.1962 238.051C57.143 238.23 57.0864 238.414 57.0269 238.603Z" fill="#F7C43C"/>
<path d="M32.3514 212.699C31.1969 213.593 29.2907 213.133 28.0553 213.865C26.5249 214.77 25.6047 216.827 23.9104 217.492C22.2317 218.149 20.4863 218.693 18.7065 219.136C16.9852 219.565 15.2296 219.902 13.4506 220.167L13.1154 220.317C13.0468 220.324 12.9785 220.331 12.9102 220.337C10.9114 220.508 8.74693 220.588 6.50508 220.188C4.99136 219.918 3.46151 219.356 2.26189 218.505C1.73355 218.136 1.26601 217.722 0.856369 217.287C0.548842 216.961 0.275165 216.624 0.0232009 216.279C-0.0116056 216.231 -0.00806789 216.128 0.0368152 215.989C0.0817477 215.85 0.163677 215.687 0.266649 215.532C0.369698 215.376 0.486942 215.237 0.593622 215.139C0.700156 215.041 0.787021 214.993 0.839232 215.001C1.21758 215.065 1.58759 215.103 1.94717 215.113C2.34569 215.125 2.72726 215.101 3.08631 215.044C2.89699 215.787 2.8032 216.368 2.89293 216.66C2.93766 216.808 3.04868 216.894 3.17018 216.776C3.27926 216.671 3.38739 216.461 3.48494 216.26C3.58723 216.049 3.67835 215.848 3.75475 215.784C3.88504 215.677 4.03739 215.372 4.17702 215.046C4.22808 214.927 4.27798 214.806 4.326 214.691C4.62007 214.568 4.89884 214.425 5.17098 214.265C5.27986 214.344 5.38568 214.404 5.47133 214.367C5.54891 214.334 5.60696 214.166 5.6569 213.959C5.69812 213.932 5.74031 213.903 5.78071 213.875C6.04714 213.693 6.30993 213.498 6.57575 213.291C6.8507 213.441 7.15356 213.573 7.52464 213.559C7.68345 213.554 7.86506 213.615 8.04232 213.671C8.30645 213.753 8.56164 213.824 8.70849 213.657C8.80501 213.546 8.97355 213.601 9.13739 213.657C9.35941 213.731 9.58986 213.799 9.64282 213.464C9.67643 213.252 9.68863 213.006 9.69426 212.779C9.70425 212.448 9.71116 212.155 9.78789 212.061L9.50338 212.189C9.51035 212.179 9.51801 212.172 9.52643 212.165C9.71611 212.03 9.78624 211.724 9.8469 211.455C9.91997 211.132 9.97945 210.861 10.2211 210.999C10.2579 211.02 10.303 211.05 10.354 211.084C10.6224 211.263 11.0537 211.548 11.268 211.163C11.3444 211.025 11.3482 210.767 11.3541 210.513C11.3617 210.143 11.3676 209.784 11.5925 209.827C11.6261 209.834 11.6915 209.899 11.7511 209.959C11.827 210.036 11.8933 210.102 11.8727 210.025C11.8122 209.8 11.7663 209.539 11.7157 209.256C11.6786 209.048 11.6384 208.828 11.5898 208.6C11.948 208.272 12.2986 207.952 12.6594 207.632C12.8236 207.486 12.9876 207.341 13.1514 207.198C13.408 207.451 13.6523 207.672 13.8673 207.823C14.1481 208.021 14.3697 208.009 14.6544 207.994C14.8635 207.983 15.1089 207.97 15.4391 208.035C16.0492 208.157 16.4398 207.842 16.614 207.503C16.6508 207.432 16.6862 207.358 16.7236 207.277C16.863 206.974 17.0455 206.59 17.4689 206.04C17.8753 205.517 18.2848 205.208 18.5995 204.97C18.7588 204.85 18.8905 204.751 18.9789 204.654C19.129 204.489 19.3314 204.301 19.529 204.116C19.8368 203.828 20.1525 203.532 20.2896 203.303C20.3387 203.221 20.3856 203.128 20.4363 203.029C20.5788 202.751 20.7524 202.414 21.0647 202.093C21.3996 201.751 21.682 201.679 22.029 201.682C22.1706 201.683 22.4123 201.878 22.6621 202.079C23.0164 202.365 23.3864 202.663 23.5042 202.435C23.5323 202.382 23.5433 202.293 23.5544 202.201C23.5749 202.032 23.5962 201.848 23.7285 201.842C23.7746 201.84 23.8464 201.889 23.9167 201.937C23.9941 201.99 24.0699 202.041 24.1087 202.023C24.2521 201.955 24.3769 201.855 24.4854 201.767C24.6258 201.653 24.7423 201.559 24.8572 201.569C25.0608 201.588 25.1588 201.397 25.2543 201.204C25.3276 201.057 25.4002 200.908 25.5235 200.85C25.8805 200.68 26.2179 200.217 26.4941 199.623C26.5967 199.399 26.8417 199.457 27.1598 199.528C27.357 199.573 27.5812 199.625 27.8122 199.619C27.9443 199.615 27.9376 199.426 27.9298 199.253C27.9229 199.093 27.9161 198.946 28.0199 198.964C28.1115 198.979 28.2965 199.183 28.4724 199.376C28.6682 199.591 28.8519 199.793 28.8834 199.709C28.9005 199.664 28.865 199.525 28.8226 199.359C28.8059 199.294 28.7883 199.225 28.7721 199.155C28.8014 199.202 28.8283 199.243 28.8489 199.274C28.9942 199.494 29.1326 199.569 29.268 199.642C29.3221 199.671 29.3757 199.7 29.4292 199.738C29.6266 199.877 29.7814 199.818 29.8816 199.739C29.9241 199.705 30.0101 199.746 30.1103 199.794C30.1993 199.836 30.2997 199.884 30.3905 199.89C30.4423 199.893 30.511 199.939 30.5682 199.977C30.6096 200.005 30.645 200.029 30.6631 200.029C30.6787 200.029 30.6451 199.961 30.6073 199.884C30.58 199.828 30.5505 199.768 30.5356 199.726C30.4999 199.625 30.5108 199.58 30.5492 199.595C30.567 199.601 30.5907 199.621 30.6142 199.64C30.6417 199.663 30.6691 199.685 30.6875 199.688C30.7725 199.697 30.7767 199.59 30.7808 199.479C30.7852 199.357 30.7896 199.231 30.9008 199.247C30.9358 199.252 30.9896 199.282 31.0418 199.312C31.0964 199.342 31.1493 199.371 31.1765 199.37C31.2866 199.366 31.2532 199.16 31.2238 198.97C31.2039 198.844 31.185 198.726 31.2101 198.678C31.2563 198.592 31.1663 198.379 31.0997 198.222C31.0651 198.141 31.0367 198.074 31.0369 198.048C31.0518 198.045 31.0676 198.043 31.0835 198.042C31.1032 198.049 31.1237 198.056 31.1306 198.044C31.1311 198.043 31.1313 198.042 31.1318 198.041C31.2259 198.043 31.3312 198.065 31.4389 198.084C31.6791 198.13 31.9155 198.176 32.003 197.996C32.022 197.957 31.9991 197.859 31.9779 197.758C31.9514 197.635 31.9239 197.509 31.9702 197.486C32.0805 197.434 32.2677 197.49 32.4514 197.546C32.7262 197.631 33.005 197.707 32.9916 197.415C32.9875 197.319 32.9508 197.18 32.913 197.04C32.8922 196.962 32.8698 196.884 32.8556 196.812C32.9227 196.916 32.9878 197.013 33.0484 197.103C33.1734 197.288 33.2805 197.446 33.3527 197.594C33.5234 197.944 33.7693 198.417 34.0003 198.725C34.063 198.809 34.1293 198.905 34.1959 199.001C34.363 199.243 34.5336 199.491 34.6637 199.564C34.7512 199.614 34.9625 199.721 34.8894 199.497C34.8733 199.448 34.8241 199.364 34.7694 199.27C34.6712 199.102 34.5549 198.902 34.5772 198.82C34.5809 198.807 34.5859 198.793 34.5916 198.78C34.6142 198.726 34.6395 198.667 34.5646 198.528C34.4783 198.369 34.3534 198.206 34.2078 198.015C34.0182 197.767 33.7934 197.471 33.5712 197.08C33.5273 197.003 33.5247 196.967 33.5226 196.94C33.5212 196.921 33.5197 196.906 33.5047 196.884C33.4874 196.859 33.4475 196.81 33.3969 196.747C33.2185 196.526 32.9075 196.139 32.9778 196.062C32.9964 196.041 33.0369 196.041 33.0732 196.041C33.1266 196.041 33.1707 196.041 33.1267 195.972C33.1099 195.947 33.0913 195.919 33.0717 195.89C33.105 195.878 33.1382 195.866 33.1712 195.854C33.2634 195.906 33.3075 195.863 33.3614 195.81C33.3745 195.798 33.3885 195.784 33.4036 195.771C33.4329 195.761 33.4621 195.751 33.4912 195.741L34.2109 195.285C34.2548 195.273 34.2987 195.262 34.3426 195.252C34.4181 195.258 34.5092 195.285 34.6215 195.345C34.8468 195.467 35.1169 195.721 35.3823 195.969C35.4937 196.074 35.6038 196.178 35.7084 196.271C35.6984 196.295 35.6915 196.32 35.6915 196.349C35.6913 196.551 35.821 196.88 35.941 197.183C36.0209 197.385 36.0958 197.575 36.1266 197.707C36.1826 197.949 36.3191 198.195 36.4197 198.377C36.472 198.471 36.5146 198.549 36.5317 198.599C36.5454 198.639 36.5411 198.664 36.5367 198.689C36.5329 198.711 36.529 198.735 36.5368 198.769C36.6315 199.184 36.7733 199.379 36.9772 199.665C37.0897 199.822 37.2213 200.007 37.3755 200.271C37.5364 200.551 37.5768 200.637 37.5882 200.777C37.7005 200.898 37.8125 201.019 37.924 201.141C37.9338 201.124 37.8988 201.03 37.838 200.875C37.7294 200.597 37.7733 200.452 37.8077 200.339C37.8235 200.287 37.8373 200.241 37.8332 200.193C37.8114 199.932 37.6328 199.646 37.4746 199.395C37.3876 199.256 37.3069 199.128 37.2632 199.02C37.2445 198.974 37.2164 198.933 37.1878 198.892C37.1657 198.859 37.1432 198.826 37.1245 198.79C36.9885 198.529 36.9431 198.306 36.9016 198.1C36.8779 197.981 36.8549 197.868 36.8176 197.755C36.8061 197.72 36.7934 197.686 36.7809 197.652C36.7627 197.604 36.7454 197.557 36.7343 197.515C36.7089 197.42 36.7172 197.343 36.7265 197.259C36.7313 197.216 36.7364 197.171 36.7372 197.12C36.7383 197.055 36.6958 196.946 36.6516 196.832C36.6204 196.752 36.5883 196.668 36.5698 196.596C36.5363 196.465 36.567 196.397 36.5955 196.333C36.6078 196.305 36.6196 196.278 36.6258 196.248C36.6283 196.235 36.6227 196.216 36.6113 196.191C36.6507 196.068 36.6865 195.946 36.721 195.826C36.8906 195.229 37.0625 194.702 37.6866 194.739C37.8041 194.746 37.904 194.69 37.9901 194.603C38.3686 194.562 38.7526 194.528 39.1383 194.502C39.3063 194.72 39.4691 194.895 39.6318 195.018C39.9358 195.25 40.141 195.245 40.3913 195.238C40.5739 195.234 40.7792 195.23 41.0517 195.328C41.5099 195.492 41.9544 195.617 42.4042 195.618C42.8508 195.618 43.35 195.578 43.694 195.525C43.8821 195.495 44.1342 195.677 44.3621 195.85C44.6851 196.092 44.9576 196.319 45.0143 195.894C45.0321 195.759 45.0301 195.53 45.0297 195.308C45.0293 195.15 45.03 194.996 45.0379 194.879C45.1248 194.898 45.2119 194.917 45.2979 194.937C45.4879 195.176 45.7504 195.423 45.916 195.094C46.0047 195.118 46.0925 195.143 46.1767 195.169C46.3616 195.223 46.5398 195.281 46.7208 195.342C46.7798 195.362 46.8389 195.383 46.8976 195.404C46.8982 195.404 46.8987 195.405 46.8993 195.405C47.0165 195.447 47.1386 195.491 47.2536 195.537C47.3029 195.557 47.3527 195.576 47.4027 195.596C47.5297 195.647 47.6527 195.7 47.7769 195.755C47.8419 195.784 47.9068 195.814 47.9709 195.844C48.0768 195.894 48.1823 195.945 48.2844 195.997C48.4533 196.082 48.615 196.172 48.776 196.265C48.8021 196.281 48.8256 196.327 48.8407 196.395C48.8558 196.464 48.8615 196.55 48.8567 196.638C48.852 196.726 48.8371 196.811 48.8159 196.877C48.7947 196.944 48.7687 196.986 48.7431 196.999C48.5855 197.076 48.4338 197.156 48.2817 197.238C48.1897 197.289 48.097 197.341 48.0059 197.394C47.9507 197.426 47.8957 197.458 47.8411 197.491C47.737 197.553 47.6362 197.616 47.5342 197.68C47.4941 197.705 47.4546 197.73 47.4157 197.756C47.3249 197.815 47.2298 197.876 47.1406 197.937C47.14 197.937 47.1395 197.937 47.1389 197.938C47.0946 197.968 47.0503 197.998 47.0065 198.028C46.8709 198.121 46.7409 198.214 46.6083 198.309C46.5408 198.36 46.4699 198.411 46.3996 198.462C46.3606 198.491 46.323 198.52 46.2855 198.549C46.2649 198.564 46.2441 198.58 46.2231 198.595C45.7431 198.96 45.2934 199.337 44.8525 199.72C44.4138 200.103 43.9891 200.492 43.5762 200.885C43.1628 201.277 42.76 201.673 42.3633 202.07C41.3725 203.065 40.4244 204.089 39.4918 205.112L40.122 204.713C38.6361 206.688 37.026 208.505 35.3044 210.152C34.8957 210.543 34.4725 210.928 34.0533 211.296C33.6263 211.668 33.2067 212.022 32.7641 212.375C32.6318 212.481 32.4943 212.589 32.3514 212.699Z" fill="#F7C43C"/>
<path d="M780.135 54.6879C781.07 53.7129 782.949 53.9433 783.985 53.0776C785.269 52.0041 785.718 49.8985 787.158 49.0077C788.591 48.1231 790.099 47.3128 791.653 46.5691C793.208 45.824 794.814 45.1408 796.458 44.4945C798.1 43.8508 799.782 43.2423 801.479 42.6577C802.631 42.2608 803.795 41.8713 804.962 41.4847C805.473 41.3158 805.986 41.1461 806.498 40.9774C806.88 40.8519 807.263 40.7258 807.646 40.5991C807.699 40.5817 807.795 40.6162 807.915 40.6987C808.035 40.7813 808.169 40.9042 808.291 41.0452C808.413 41.1864 808.516 41.3367 808.58 41.467C808.644 41.597 808.663 41.6957 808.638 41.7455C808.452 42.1053 808.266 42.4647 808.081 42.8236C807.874 43.2221 807.667 43.622 807.459 44.0195C806.91 43.4825 806.462 43.1016 806.167 43.0173C806.017 42.9742 805.886 43.0151 805.908 43.1834C805.929 43.3346 806.03 43.5482 806.127 43.7516C806.228 43.9644 806.324 44.1664 806.316 44.2737C806.303 44.4559 806.422 44.7822 806.547 45.125C806.593 45.2498 806.639 45.3769 806.681 45.4999C806.481 45.8769 806.278 46.2553 806.076 46.631C805.906 46.6695 805.755 46.7116 805.685 46.8135C805.622 46.9049 805.652 47.0917 805.709 47.3082C805.677 47.3663 805.646 47.4244 805.614 47.4825C805.409 47.857 805.203 48.2289 804.996 48.599C804.628 48.6458 804.249 48.7083 803.871 48.917C803.708 49.0069 803.5 49.0396 803.3 49.0711C803.003 49.1188 802.724 49.1634 802.635 49.384C802.575 49.5315 802.392 49.5453 802.21 49.5589C801.966 49.5771 801.722 49.5953 801.776 49.9366C801.81 50.1511 801.877 50.39 801.939 50.6114C802.038 50.9637 802.125 51.2716 802.046 51.3652C801.898 51.5411 801.907 51.8514 801.912 52.1276C801.919 52.4591 801.925 52.737 801.657 52.6596C801.617 52.6478 801.566 52.6295 801.509 52.6083C801.206 52.4972 800.724 52.3182 800.608 52.741C800.565 52.892 800.62 53.1449 800.674 53.3927C800.753 53.7536 800.83 54.1038 800.602 54.1127C800.567 54.114 800.489 54.0647 800.417 54.0197C800.326 53.9625 800.247 53.9125 800.284 53.9827C800.395 54.1888 800.498 54.4318 800.612 54.6962C800.695 54.8903 800.782 55.0967 800.881 55.3078C800.605 55.7084 800.329 56.1016 800.047 56.4909C799.917 56.6702 799.786 56.8482 799.655 57.0247C799.35 56.8328 799.064 56.6683 798.823 56.5654C798.508 56.4308 798.295 56.4878 798.018 56.5627C797.814 56.6174 797.578 56.6806 797.243 56.6824C796.627 56.6837 796.304 57.0722 796.203 57.4357C796.182 57.5128 796.162 57.5924 796.141 57.6781C796.065 58.0014 795.961 58.4137 795.649 59.0345C795.355 59.6209 794.998 60.0095 794.737 60.2948C794.604 60.4401 794.489 60.5646 794.418 60.6764C794.297 60.8686 794.134 61.086 793.971 61.3029C793.716 61.6428 793.454 61.9891 793.357 62.2384C793.322 62.3274 793.291 62.4273 793.257 62.5346C793.163 62.8322 793.044 63.1963 792.783 63.5673C792.513 63.9543 792.231 64.0812 791.889 64.1319C791.749 64.153 791.48 63.9977 791.202 63.8368C790.81 63.6073 790.395 63.3727 790.312 63.6165C790.292 63.6735 790.295 63.7621 790.298 63.8549C790.303 64.0254 790.309 64.2098 790.179 64.2356C790.134 64.2445 790.056 64.2067 789.979 64.1696C789.895 64.1287 789.813 64.0889 789.777 64.1126C789.643 64.2019 789.534 64.3193 789.439 64.422C789.316 64.5549 789.214 64.6655 789.098 64.6718C788.892 64.6833 788.827 64.8822 788.756 65.0886C788.703 65.2454 788.65 65.4037 788.535 65.4792C788.209 65.6921 787.924 66.2056 787.729 66.8272C787.656 67.0615 787.398 67.0411 787.074 67.0085C786.873 66.9886 786.643 66.965 786.414 66.9992C786.285 67.018 786.312 67.2062 786.339 67.3778C786.364 67.5363 786.388 67.6828 786.282 67.6779C786.188 67.6736 785.98 67.4933 785.783 67.3221C785.563 67.1315 785.357 66.9523 785.336 67.0389C785.324 67.0849 785.376 67.2188 785.438 67.3779C785.462 67.4408 785.488 67.5075 785.512 67.5745C785.477 67.5314 785.446 67.4935 785.422 67.4649C785.253 67.2627 785.107 67.2038 784.963 67.147C784.906 67.1243 784.849 67.1019 784.792 67.0704C784.579 66.9545 784.429 67.0331 784.339 67.1219C784.301 67.1594 784.212 67.1277 784.108 67.0906C784.015 67.0577 783.911 67.0204 783.821 67.0235C783.77 67.0253 783.697 66.9867 783.636 66.9543C783.592 66.9312 783.554 66.9116 783.536 66.9133C783.52 66.9149 783.56 66.9796 783.606 67.0524C783.639 67.1048 783.674 67.1616 783.693 67.2021C783.739 67.2988 783.732 67.3452 783.692 67.3355C783.674 67.3309 783.648 67.3142 783.622 67.2975C783.593 67.278 783.563 67.2583 783.544 67.2582C783.459 67.2577 783.466 67.3641 783.474 67.4744C783.483 67.5957 783.491 67.7217 783.379 67.7162C783.344 67.7145 783.288 67.69 783.233 67.6662C783.176 67.6413 783.12 67.6174 783.093 67.6211C782.985 67.6359 783.038 67.8378 783.086 68.0239C783.118 68.1476 783.148 68.2639 783.127 68.3137C783.089 68.4049 783.199 68.6082 783.28 68.7582C783.322 68.836 783.356 68.8998 783.359 68.9261C783.344 68.9302 783.328 68.9336 783.312 68.9363C783.292 68.9318 783.271 68.9271 783.265 68.9392C783.264 68.9401 783.264 68.9414 783.264 68.9424C783.169 68.9502 783.061 68.9394 782.954 68.9283C782.715 68.9017 782.468 68.8837 782.395 69.0721C782.379 69.1129 782.41 69.2096 782.44 69.3077C782.478 69.428 782.517 69.5509 782.473 69.5767C782.368 69.6382 782.178 69.5971 781.985 69.5607C781.698 69.5043 781.419 69.4479 781.454 69.7385C781.466 69.8344 781.513 69.9704 781.561 70.1072C781.588 70.1831 781.614 70.2609 781.634 70.3313C781.559 70.2326 781.487 70.1416 781.42 70.0568C781.281 69.8819 781.162 69.7322 781.079 69.5894C780.882 69.2537 780.599 68.8016 780.345 68.5125C780.276 68.4341 780.202 68.3439 780.128 68.253C779.942 68.025 779.752 67.7921 779.618 67.7281C779.528 67.6842 779.308 67.5944 779.399 67.8117C779.419 67.859 779.475 67.9393 779.537 68.0284C779.648 68.1885 779.779 68.3783 779.763 68.4617C779.76 68.4757 779.756 68.4897 779.752 68.5034C779.733 68.5585 779.713 68.6195 779.797 68.7519C779.895 68.9044 780.032 69.0583 780.191 69.2377C780.399 69.4713 780.645 69.7489 780.895 70.1234C780.944 70.1974 780.949 70.2329 780.953 70.2598C780.955 70.2787 780.958 70.2937 780.974 70.3145C780.993 70.3384 781.037 70.3849 781.092 70.4436C781.286 70.6509 781.625 71.0134 781.558 71.0976C781.54 71.1203 781.5 71.1233 781.464 71.1257C781.411 71.1294 781.367 71.1325 781.416 71.1975C781.434 71.2221 781.455 71.2484 781.477 71.2755C781.466 71.2803 781.455 71.2851 781.444 71.2899C781.422 71.3002 781.4 71.3106 781.378 71.3208C781.281 71.2763 781.237 71.3236 781.184 71.3826C781.171 71.3969 781.158 71.4117 781.143 71.4262C781.077 71.4553 781.012 71.4843 780.947 71.5126C780.88 71.516 780.793 71.5019 780.679 71.4596C780.453 71.373 780.139 71.1796 779.838 70.9851C779.711 70.9036 779.585 70.8225 779.467 70.7512C779.47 70.7278 779.469 70.7033 779.461 70.6757C779.408 70.4863 779.205 70.1962 779.019 69.9292C778.895 69.7517 778.778 69.5842 778.718 69.4635C778.607 69.2424 778.421 69.0317 778.283 68.876C778.211 68.7952 778.153 68.7289 778.125 68.6839C778.103 68.6477 778.101 68.6233 778.099 68.5979C778.098 68.5759 778.096 68.5527 778.081 68.5214C777.891 68.1425 777.714 67.9798 777.455 67.7431C777.313 67.6122 777.145 67.46 776.937 67.236C776.719 66.9971 776.661 66.9221 776.62 66.7886C776.484 66.6942 776.348 66.6007 776.212 66.5066C776.206 66.5254 776.26 66.6098 776.354 66.7478C776.521 66.9944 776.512 67.1439 776.506 67.2601C776.503 67.314 776.501 67.3608 776.516 67.4072C776.599 67.6535 776.838 67.8916 777.049 68.1013C777.164 68.2167 777.271 68.3236 777.339 68.4182C777.368 68.4587 777.404 68.4924 777.441 68.5268C777.47 68.5534 777.499 68.5804 777.526 68.6112C777.717 68.835 777.816 69.0384 777.907 69.227C777.96 69.335 778.01 69.4384 778.075 69.5382C778.094 69.5686 778.115 69.5989 778.135 69.6282C778.165 69.671 778.193 69.7119 778.214 69.7493C778.263 69.8345 778.277 69.9074 778.29 69.9893C778.297 70.0311 778.304 70.0747 778.317 70.1225C778.333 70.1845 778.401 70.2797 778.472 70.3793C778.522 70.4496 778.574 70.5221 778.61 70.587C778.676 70.7043 778.667 70.7742 778.66 70.8389C778.656 70.8671 778.653 70.8947 778.656 70.9245C778.658 70.9366 778.668 70.954 778.685 70.9754C778.686 71.0964 778.69 71.2161 778.696 71.3327C778.715 71.924 778.744 72.427 778.192 72.5164C778.089 72.5324 778.026 72.6008 777.982 72.6967C777.666 72.8149 777.362 72.9191 777.046 73.0301C776.827 72.8686 776.625 72.7479 776.446 72.6716C776.103 72.5342 775.927 72.5936 775.724 72.6594C775.569 72.7129 775.398 72.7709 775.135 72.7549C774.682 72.7379 774.261 72.7575 773.89 72.9022C773.52 73.0462 773.131 73.2573 772.885 73.4301C772.747 73.5272 772.464 73.4618 772.193 73.4081C771.818 73.328 771.476 73.2621 771.659 73.6419C771.717 73.7637 771.838 73.9565 771.958 74.1424C772.043 74.2749 772.126 74.4043 772.183 74.5045C772.11 74.5241 772.039 74.5425 771.963 74.5637C771.693 74.4465 771.357 74.3636 771.432 74.704C771.355 74.7255 771.279 74.7462 771.205 74.764C771.044 74.8079 770.886 74.8475 770.725 74.8903C770.673 74.9034 770.621 74.9167 770.567 74.9314C770.567 74.9315 770.566 74.9316 770.566 74.9317C770.458 74.96 770.352 74.988 770.245 75.0159C770.199 75.0277 770.154 75.0387 770.108 75.0515C769.992 75.0825 769.875 75.1138 769.76 75.1439C769.699 75.1588 769.636 75.1769 769.574 75.193C769.475 75.2186 769.371 75.2475 769.27 75.274C769.105 75.3183 768.941 75.3615 768.775 75.4055C768.747 75.4126 768.699 75.3974 768.639 75.3614C768.579 75.3254 768.512 75.2719 768.449 75.2097C768.387 75.1475 768.334 75.0801 768.298 75.0199C768.262 74.96 768.248 74.9125 768.255 74.8855C768.302 74.7207 768.348 74.5573 768.396 74.393C768.425 74.2924 768.457 74.1888 768.486 74.0891C768.505 74.0274 768.525 73.9641 768.543 73.9036C768.579 73.7876 768.616 73.6703 768.654 73.5535C768.67 73.5068 768.684 73.4619 768.699 73.4161C768.735 73.3083 768.771 73.2008 768.808 73.0929C768.809 73.0923 768.809 73.0916 768.809 73.091C768.828 73.0372 768.846 72.985 768.863 72.933C768.921 72.7713 768.976 72.6133 769.037 72.4518C769.066 72.3687 769.101 72.2813 769.134 72.1954C769.151 72.1483 769.169 72.1009 769.187 72.0538C769.197 72.0283 769.207 72.0025 769.218 71.9764C769.448 71.3801 769.689 70.7969 769.947 70.2187C770.201 69.644 770.467 69.0775 770.739 68.5228C771.011 67.9676 771.289 67.4233 771.58 66.8829C772.375 65.4013 773.196 63.9737 774.079 62.5794C775.22 60.7667 776.444 59.0319 777.741 57.4157C778.075 57.0016 778.408 56.6021 778.754 56.2039C779.093 55.8121 779.444 55.4219 779.797 55.0441C779.905 54.9277 780.018 54.8092 780.135 54.6879Z" fill="#F7C43C"/>
<path d="M749.538 31.0754C749.9 29.4357 751.711 28.3558 752.241 26.795C752.899 24.8581 752.339 22.455 753.27 20.6046C754.196 18.7668 755.241 16.9747 756.38 15.2233C757.52 13.4714 758.749 11.7681 760.059 10.0909C760.346 9.72375 760.637 9.35672 760.928 9.00024C761.982 7.69712 763.081 6.41849 764.249 5.16444C765.265 4.07674 766.333 3.00509 767.491 2.02359C768 1.5908 768.522 1.1856 769.058 0.809712C769.457 0.53027 769.861 0.268702 770.265 0.0199538C770.321 -0.0144384 770.428 -0.00424697 770.564 0.0514982C770.701 0.107378 770.856 0.203476 770.999 0.322393C771.143 0.441397 771.267 0.575661 771.348 0.698227C771.429 0.820552 771.46 0.920713 771.438 0.980443C771.278 1.41281 771.133 1.83981 771.008 2.26313C770.867 2.73504 770.751 3.20038 770.647 3.67269C769.964 3.32058 769.414 3.10222 769.094 3.13507C768.929 3.15248 768.805 3.25314 768.873 3.41857C768.933 3.56808 769.092 3.7474 769.246 3.91441C769.407 4.08995 769.56 4.25558 769.583 4.36941C769.625 4.55664 769.838 4.84262 770.07 5.12864C770.154 5.23375 770.24 5.34084 770.319 5.44624C770.247 5.90542 770.181 6.36779 770.119 6.83415C769.969 6.9518 769.84 7.0657 769.809 7.20039C769.781 7.32231 769.877 7.49487 770.012 7.67948C770.003 7.75169 769.994 7.82463 769.985 7.89831C769.93 8.3644 769.871 8.84439 769.821 9.31229C769.488 9.55325 769.156 9.80971 768.879 10.2252C768.759 10.4048 768.577 10.5466 768.399 10.6937C768.139 10.9 767.89 11.1083 767.897 11.3736C767.902 11.5503 767.738 11.6677 767.571 11.788C767.57 11.789 767.568 11.7901 767.567 11.7912C767.345 11.9452 767.122 12.105 767.312 12.4161C767.433 12.6075 767.595 12.8049 767.745 12.9885C767.985 13.28 768.193 13.5399 768.159 13.6744C768.095 13.9306 768.23 14.2409 768.353 14.5062C768.5 14.8258 768.624 15.0961 768.341 15.1777C768.298 15.1905 768.243 15.2008 768.181 15.2132C767.853 15.2762 767.324 15.3893 767.397 15.8732C767.423 16.0455 767.583 16.262 767.739 16.4745C767.967 16.7865 768.192 17.0792 767.983 17.2244C767.952 17.2459 767.858 17.2442 767.772 17.2426C767.662 17.2406 767.567 17.239 767.632 17.2859C767.824 17.4229 768.024 17.6028 768.245 17.7936C768.407 17.9344 768.578 18.0838 768.762 18.2314C768.682 18.7847 768.6 19.3341 768.513 19.882C768.474 20.1317 768.432 20.3864 768.391 20.635C768.024 20.631 767.688 20.6426 767.42 20.6887C767.069 20.7493 766.898 20.9356 766.679 21.1742C766.517 21.3499 766.327 21.5586 766.021 21.7641C765.454 22.1493 765.338 22.718 765.41 23.1384C765.426 23.2272 765.444 23.3165 765.464 23.4129C765.542 23.7781 765.638 24.2354 765.64 25.0335C765.643 25.7878 765.504 26.3774 765.4 26.8204C765.347 27.0468 765.303 27.2343 765.292 27.3861C765.274 27.6458 765.229 27.958 765.185 28.2699C765.116 28.7587 765.048 29.2503 765.08 29.5523C765.091 29.6598 765.111 29.7754 765.133 29.8999C765.191 30.2452 765.263 30.6611 765.21 31.182C765.155 31.7287 764.971 32.0158 764.69 32.2857C764.576 32.3952 764.26 32.4205 763.934 32.4467C763.471 32.4842 762.987 32.5255 763.034 32.81C763.045 32.8764 763.091 32.9586 763.14 33.0444C763.23 33.2018 763.327 33.3729 763.224 33.4821C763.189 33.5202 763.1 33.5353 763.014 33.5502C762.919 33.5666 762.826 33.5827 762.806 33.6287C762.732 33.8007 762.696 33.9773 762.664 34.1371C762.622 34.3421 762.588 34.5133 762.489 34.5949C762.313 34.74 762.355 34.9741 762.399 35.211C762.432 35.3918 762.467 35.5738 762.404 35.7195C762.225 36.1389 762.243 36.7959 762.397 37.505C762.455 37.7723 762.223 37.9181 761.926 38.1013C761.741 38.215 761.53 38.3456 761.349 38.5332C761.247 38.6392 761.372 38.7898 761.487 38.9284C761.559 39.015 761.628 39.097 761.635 39.161C761.638 39.1919 761.628 39.2187 761.598 39.2401C761.515 39.2987 761.24 39.2721 760.979 39.2472C760.689 39.2193 760.415 39.1936 760.443 39.2881C760.458 39.3383 760.574 39.427 760.712 39.5321C760.767 39.5737 760.825 39.6178 760.881 39.6632C760.829 39.6469 760.781 39.6332 760.745 39.6231C760.492 39.5517 760.336 39.5945 760.182 39.6386C760.121 39.6563 760.06 39.674 759.994 39.684C759.75 39.7208 759.663 39.8951 759.635 40.0376C759.623 40.0978 759.529 40.1296 759.42 40.1667C759.323 40.1992 759.214 40.2378 759.138 40.304C759.095 40.3418 759.011 40.3571 758.942 40.3696C758.892 40.3786 758.849 40.3863 758.834 40.4003C758.822 40.4124 758.891 40.4439 758.97 40.4792C759.027 40.5047 759.088 40.5323 759.126 40.5561C759.218 40.6132 759.238 40.6598 759.198 40.6781C759.18 40.6866 759.149 40.6888 759.118 40.6909C759.082 40.6934 759.046 40.6958 759.03 40.7083C758.958 40.7656 759.022 40.8575 759.09 40.9525C759.163 41.0577 759.24 41.1681 759.141 41.2412C759.11 41.2643 759.049 41.2813 758.989 41.2977C758.927 41.3149 758.867 41.3318 758.846 41.3541C758.761 41.4448 758.918 41.5917 759.062 41.726C759.158 41.8148 759.247 41.9006 759.258 41.96C759.276 42.0692 759.482 42.1781 759.634 42.2583C759.712 42.2998 759.777 42.3338 759.793 42.3561C759.783 42.3701 759.772 42.384 759.76 42.3975C759.74 42.4075 759.72 42.4179 759.722 42.4329C759.722 42.4341 759.722 42.4354 759.723 42.4365C759.647 42.5093 759.55 42.5747 759.454 42.6395C759.236 42.7873 759.021 42.9352 759.066 43.157C759.076 43.2048 759.155 43.2708 759.237 43.3378C759.336 43.4195 759.438 43.5045 759.415 43.5593C759.362 43.6901 759.179 43.7898 758.999 43.888C758.728 44.0341 758.463 44.1842 758.658 44.4228C758.722 44.5016 758.839 44.5912 758.957 44.6809C759.023 44.7308 759.089 44.781 759.147 44.8292C759.028 44.7939 758.916 44.7635 758.811 44.7352C758.595 44.6768 758.411 44.6268 758.26 44.5576C757.905 44.3942 757.411 44.186 757.035 44.1065C756.932 44.085 756.819 44.0559 756.706 44.0266C756.421 43.9528 756.13 43.8774 755.981 43.9176C755.881 43.9448 755.647 44.0195 755.847 44.1508C755.891 44.1793 755.983 44.212 756.086 44.2484C756.269 44.3137 756.487 44.3911 756.522 44.478C756.528 44.4926 756.532 44.5082 756.536 44.524C756.553 44.5872 756.57 44.6577 756.717 44.7164C756.886 44.784 757.087 44.8245 757.322 44.872C757.629 44.9337 757.993 45.0073 758.415 45.1655C758.498 45.1968 758.523 45.2253 758.541 45.2468C758.555 45.2619 758.565 45.2736 758.591 45.2805C758.62 45.2883 758.683 45.2989 758.763 45.3124C759.043 45.3596 759.533 45.4429 759.526 45.5661C759.524 45.5994 759.493 45.6307 759.464 45.6588C759.423 45.7 759.388 45.7356 759.466 45.7589C759.495 45.7678 759.527 45.7767 759.561 45.7856C759.542 45.8224 759.524 45.8592 759.506 45.8959C759.4 45.9244 759.392 45.9962 759.383 46.0857C759.381 46.1074 759.378 46.1302 759.374 46.1536C759.338 46.2256 759.301 46.2973 759.264 46.3692C759.211 46.4215 759.131 46.472 759.012 46.5178C758.775 46.6094 758.406 46.6538 758.046 46.6979C757.894 46.7165 757.743 46.7345 757.605 46.7575C757.593 46.7345 757.578 46.7128 757.556 46.6937C757.401 46.5639 757.065 46.4518 756.755 46.3485C756.55 46.2798 756.356 46.2149 756.235 46.151C756.015 46.034 755.739 45.9802 755.535 45.9406C755.429 45.92 755.342 45.9031 755.293 45.883C755.254 45.8669 755.238 45.8463 755.222 45.8249C755.207 45.8063 755.193 45.787 755.162 45.77C754.786 45.5627 754.545 45.5465 754.194 45.5242C754 45.5118 753.773 45.4973 753.472 45.4474C753.153 45.3914 753.061 45.3668 752.95 45.2758C752.783 45.2908 752.616 45.306 752.449 45.3213C752.455 45.3429 752.55 45.3789 752.707 45.4349C752.988 45.5351 753.068 45.6763 753.131 45.7884C753.159 45.8403 753.185 45.8853 753.225 45.9163C753.436 46.0805 753.772 46.1178 754.068 46.1512C754.23 46.1695 754.381 46.1866 754.492 46.2224C754.539 46.2377 754.589 46.2411 754.639 46.2447C754.678 46.2474 754.718 46.2502 754.758 46.2585C755.046 46.3191 755.246 46.4312 755.431 46.5347C755.538 46.594 755.64 46.6506 755.751 46.6935C755.785 46.7065 755.819 46.7186 755.853 46.7301C755.903 46.747 755.95 46.7632 755.989 46.7813C756.079 46.8225 756.133 46.8794 756.192 46.9415C756.223 46.9733 756.254 47.0065 756.293 47.0397C756.343 47.0827 756.455 47.1179 756.571 47.1548C756.654 47.1808 756.739 47.2078 756.807 47.2388C756.93 47.2953 756.964 47.3642 756.996 47.4279C757.01 47.4557 757.023 47.4826 757.044 47.507C757.052 47.5169 757.071 47.5248 757.097 47.5313C757.169 47.6397 757.244 47.744 757.317 47.8453C757.684 48.3543 758.006 48.7886 757.615 49.2693C757.542 49.3599 757.531 49.4704 757.553 49.5896C757.372 49.9205 757.188 50.2523 757.002 50.5835C756.729 50.6049 756.493 50.6516 756.302 50.7226C755.944 50.8567 755.84 51.0397 755.716 51.2611C755.625 51.4243 755.524 51.6031 755.303 51.798C754.932 52.1239 754.607 52.471 754.399 52.8902C754.193 53.3086 754.013 53.7977 753.921 54.1505C753.871 54.3433 753.605 54.5103 753.357 54.6693C753.008 54.892 752.695 55.0922 753.072 55.3016C753.193 55.3683 753.407 55.4476 753.616 55.5246C753.765 55.5794 753.91 55.6332 754.017 55.6805C753.97 55.7565 753.923 55.8322 753.876 55.9087C753.588 56.0136 753.269 56.1965 753.534 56.458C753.485 56.5369 753.436 56.6158 753.387 56.6917C753.283 56.8579 753.179 57.02 753.074 57.1843C753.04 57.2379 753.005 57.292 752.97 57.3462C752.97 57.3467 752.97 57.3472 752.969 57.3477C752.899 57.4569 752.829 57.5667 752.758 57.675C752.728 57.7214 752.698 57.7678 752.668 57.8141C752.592 57.932 752.515 58.0506 752.438 58.1672C752.397 58.2289 752.356 58.2913 752.315 58.3537C752.248 58.455 752.181 58.5571 752.114 58.6586C752.004 58.8227 751.895 58.9861 751.784 59.1496C751.766 59.1763 751.717 59.1976 751.647 59.2083C751.577 59.2189 751.491 59.2183 751.404 59.2058C751.317 59.1933 751.234 59.1696 751.169 59.1397C751.106 59.1097 751.066 59.0759 751.057 59.0452C750.999 58.8574 750.941 58.6699 750.885 58.4817C750.85 58.3655 750.815 58.2486 750.781 58.1326C750.76 58.0611 750.74 57.9899 750.719 57.9191C750.679 57.7855 750.64 57.6497 750.602 57.5148C750.587 57.4618 750.572 57.4087 750.557 57.3556C750.522 57.2311 750.487 57.1052 750.453 56.9799C750.452 56.9792 750.452 56.9784 750.452 56.9777C750.435 56.916 750.418 56.8545 750.401 56.7935C750.35 56.6053 750.3 56.4193 750.251 56.229C750.224 56.1304 750.199 56.0279 750.173 55.926C750.159 55.8695 750.144 55.813 750.13 55.7574C750.122 55.7271 750.115 55.6964 750.107 55.6655C749.929 54.9552 749.763 54.2485 749.613 53.5349C749.462 52.8239 749.326 52.1079 749.205 51.3949C749.083 50.68 748.977 49.9628 748.886 49.2446C748.299 44.6897 748.224 40.0208 748.78 35.5059C748.781 35.4948 748.782 35.4836 748.784 35.4725C748.86 34.8416 748.956 34.1962 749.059 33.569C749.164 32.9283 749.279 32.3023 749.411 31.6664C749.45 31.4743 749.493 31.2775 749.538 31.0754Z" fill="#F7C43C"/>
<path d="M717.732 39.3906C717.164 38.0034 718.079 36.2251 717.654 34.7896C717.127 33.006 715.32 31.5714 715.026 29.7135C714.735 27.8661 714.545 25.9789 714.437 24.0734C714.328 22.1652 714.3 20.2385 714.326 18.2931C714.352 16.3511 714.432 14.3884 714.544 12.4197C714.621 11.0857 714.711 9.74229 714.808 8.40041C714.85 7.81262 714.893 7.22305 714.938 6.63489C714.971 6.19588 715.004 5.75636 715.038 5.31637C715.043 5.25512 715.112 5.17747 715.236 5.09913C715.36 5.02072 715.527 4.94824 715.706 4.89609C715.885 4.84394 716.066 4.81546 716.212 4.81522C716.358 4.81509 716.457 4.84353 716.493 4.89277C716.754 5.25054 717.015 5.60775 717.275 5.96435C717.564 6.36009 717.854 6.75789 718.142 7.15403C717.428 7.43848 716.898 7.69709 716.704 7.94825C716.606 8.07653 716.592 8.22462 716.758 8.2836C716.906 8.33627 717.145 8.33896 717.372 8.34128C717.609 8.3437 717.834 8.34595 717.931 8.40535C718.095 8.50613 718.445 8.54508 718.813 8.58581C718.947 8.60062 719.083 8.6157 719.214 8.63408C719.487 9.0124 719.759 9.39257 720.03 9.77278C720 9.9591 719.98 10.1277 720.048 10.2462C720.108 10.3524 720.294 10.4114 720.518 10.4587C720.559 10.5174 720.601 10.576 720.643 10.6348C720.911 11.0162 721.178 11.3973 721.443 11.7776C721.343 12.163 721.255 12.5669 721.303 13.0407C721.324 13.2449 721.274 13.4668 721.226 13.6799C721.155 13.9938 721.089 14.2925 721.261 14.4853C721.375 14.6143 721.318 14.8023 721.26 14.9895C721.183 15.2407 721.106 15.491 721.445 15.5975C721.658 15.6646 721.907 15.7119 722.137 15.7549C722.504 15.8235 722.825 15.8831 722.882 16.0057C722.989 16.236 723.282 16.3756 723.541 16.4984C723.853 16.6454 724.114 16.7711 723.94 17C723.913 17.0347 723.877 17.0762 723.835 17.1231C723.615 17.3704 723.264 17.7658 723.614 18.0797C723.738 18.1916 723.995 18.2543 724.247 18.3174C724.614 18.4095 724.971 18.4986 724.892 18.7294C724.88 18.7639 724.804 18.8187 724.735 18.8686C724.647 18.9321 724.57 18.9876 724.649 18.9833C724.884 18.9709 725.151 18.9824 725.441 18.9945C725.654 19.0035 725.88 19.0129 726.114 19.0137C726.381 19.4674 726.646 19.9344 726.901 20.3932C727.019 20.604 727.134 20.8143 727.25 21.0284C726.955 21.2423 726.693 21.449 726.505 21.6408C726.26 21.8915 726.232 22.1302 726.196 22.4369C726.169 22.6614 726.139 22.9279 726.015 23.2622C725.784 23.8824 726.021 24.3685 726.325 24.6452C726.389 24.703 726.456 24.7602 726.529 24.8211C726.804 25.0538 727.146 25.3332 727.612 25.94C728.051 26.5115 728.276 27.0333 728.448 27.4333C728.535 27.636 728.606 27.8038 728.684 27.9253C728.818 28.1323 728.96 28.3953 729.103 28.6611C729.327 29.077 729.549 29.4857 729.748 29.7029C729.818 29.7799 729.901 29.858 729.989 29.9424C730.233 30.177 730.527 30.4542 730.778 30.8883C731.042 31.3472 731.052 31.6734 730.971 32.0382C730.938 32.185 730.693 32.3851 730.439 32.588C730.079 32.8767 729.702 33.1776 729.899 33.3724C729.945 33.4178 730.029 33.4559 730.117 33.4955C730.279 33.5686 730.454 33.6457 730.43 33.7879C730.421 33.8379 730.357 33.8989 730.294 33.9587C730.224 34.0245 730.156 34.0889 730.165 34.1361C730.2 34.3123 730.268 34.4724 730.329 34.6141C730.407 34.7968 730.472 34.949 730.435 35.0664C730.369 35.276 730.534 35.4413 730.7 35.6038C730.827 35.7284 730.955 35.8534 730.983 36.0027C731.059 36.4221 731.437 36.9506 731.947 37.4287C732.141 37.6165 732.025 37.8586 731.874 38.1669C731.78 38.3587 731.672 38.5757 731.619 38.8206C731.59 38.9626 731.775 39.0194 731.947 39.0718C732.105 39.12 732.251 39.1645 732.207 39.2679C732.168 39.3592 731.921 39.4832 731.687 39.6009C731.427 39.7318 731.182 39.855 731.255 39.9161C731.294 39.9487 731.439 39.9589 731.611 39.9711C731.679 39.9759 731.751 39.9811 731.823 39.988C731.77 40.0025 731.723 40.0163 731.687 40.0269C731.434 40.1017 731.325 40.2214 731.218 40.3383C731.176 40.385 731.134 40.4313 731.083 40.4743C730.895 40.6324 730.913 40.8192 730.963 40.9498C730.984 41.0051 730.921 41.0797 730.847 41.1666C730.782 41.2438 730.708 41.3306 730.678 41.4221C730.66 41.4743 730.597 41.5292 730.544 41.5748C730.506 41.6078 730.473 41.6356 730.468 41.6549C730.464 41.6714 730.539 41.661 730.625 41.6492C730.686 41.6407 730.752 41.6315 730.798 41.6312C730.905 41.6305 730.946 41.6587 730.922 41.6943C730.911 41.7108 730.886 41.7287 730.861 41.7465C730.831 41.7673 730.802 41.7881 730.795 41.8065C730.763 41.8914 730.865 41.9335 730.972 41.9771C731.089 42.025 731.21 42.0748 731.164 42.1845C731.149 42.219 731.105 42.2641 731.062 42.3079C731.018 42.3536 730.975 42.398 730.968 42.4266C730.942 42.5434 731.15 42.5794 731.343 42.6189C731.471 42.6445 731.591 42.6686 731.63 42.7126C731.702 42.7933 731.934 42.7783 732.105 42.7672C732.193 42.7615 732.266 42.7566 732.291 42.7668C732.29 42.7835 732.287 42.8008 732.284 42.818C732.272 42.8364 732.26 42.8554 732.269 42.8669C732.27 42.8678 732.271 42.8685 732.272 42.8694C732.244 42.968 732.194 43.0714 732.143 43.1739C732.03 43.4027 731.919 43.6325 732.07 43.7971C732.102 43.8323 732.204 43.8474 732.308 43.8627C732.435 43.8814 732.565 43.9004 732.573 43.9568C732.592 44.0913 732.483 44.2645 732.376 44.434C732.215 44.6928 732.059 44.9503 732.346 45.0524C732.44 45.0863 732.586 45.1031 732.732 45.1196C732.814 45.1288 732.896 45.1379 732.969 45.1499C732.849 45.1789 732.737 45.2088 732.632 45.2367C732.416 45.2941 732.231 45.3432 732.067 45.3598C731.678 45.3992 731.148 45.4699 730.782 45.5897C730.682 45.6222 730.57 45.6537 730.457 45.6852C730.174 45.7644 729.885 45.8453 729.775 45.9507C729.7 46.0217 729.533 46.1965 729.771 46.204C729.822 46.2056 729.918 46.1872 730.025 46.1668C730.216 46.1307 730.442 46.0849 730.515 46.1413C730.527 46.1506 730.539 46.1613 730.55 46.1726C730.595 46.2174 730.645 46.2675 730.801 46.2449C730.981 46.2188 731.176 46.1542 731.404 46.0788C731.7 45.9807 732.053 45.8641 732.498 45.7906C732.586 45.7761 732.621 45.7881 732.648 45.7972C732.666 45.8036 732.681 45.8083 732.707 45.8015C732.737 45.7937 732.796 45.7719 732.872 45.7442C733.139 45.6467 733.606 45.4768 733.66 45.5853C733.675 45.6146 733.663 45.6567 733.652 45.6944C733.636 45.75 733.623 45.7959 733.702 45.7778C733.732 45.7708 733.764 45.7626 733.798 45.7538C733.799 45.7935 733.801 45.8331 733.803 45.8726C733.724 45.9474 733.752 46.0109 733.787 46.0894C733.795 46.1082 733.804 46.1291 733.812 46.1515C733.816 46.2321 733.819 46.3124 733.822 46.3922C733.8 46.4627 733.755 46.5441 733.673 46.6399C733.509 46.8317 733.207 47.045 732.911 47.2525C732.836 47.3054 732.761 47.3579 732.689 47.4095C732.642 47.4444 732.596 47.4788 732.552 47.5128C732.531 47.4987 732.508 47.4872 732.479 47.4816C732.473 47.4804 732.467 47.4794 732.46 47.4784C732.26 47.452 731.924 47.5167 731.614 47.5765C731.402 47.6175 731.201 47.6562 731.065 47.6609C730.817 47.6696 730.549 47.7565 730.352 47.8209C730.249 47.8542 730.165 47.8814 730.113 47.8884C730.07 47.894 730.047 47.8847 730.023 47.875C730.001 47.8666 729.979 47.8579 729.944 47.8587C729.517 47.868 729.298 47.9695 728.98 48.1174C728.804 48.1989 728.598 48.2944 728.31 48.3963C728.004 48.5014 727.912 48.5247 727.772 48.5046C727.632 48.5951 727.493 48.6854 727.353 48.7756C727.368 48.7899 727.468 48.7743 727.632 48.745C727.866 48.7033 728 48.7429 728.098 48.79C728.123 48.803 728.146 48.8165 728.168 48.8292C728.218 48.8582 728.261 48.8832 728.31 48.8898C728.573 48.9247 728.886 48.7974 729.161 48.6855C729.313 48.6239 729.453 48.5669 729.567 48.5441C729.616 48.5344 729.661 48.5137 729.707 48.4928C729.743 48.4766 729.779 48.4601 729.818 48.4482C730.1 48.362 730.328 48.3608 730.539 48.3593C730.661 48.3584 730.777 48.3572 730.895 48.3404C730.93 48.3353 730.967 48.3289 731.002 48.3226C731.053 48.3134 731.102 48.3047 731.145 48.3011C731.243 48.293 731.318 48.3148 731.399 48.3385C731.44 48.3506 731.484 48.3633 731.533 48.3726C731.597 48.3848 731.712 48.3615 731.832 48.3374C731.916 48.3203 732.004 48.3029 732.078 48.2967C732.213 48.2855 732.275 48.3259 732.332 48.363C732.357 48.3792 732.381 48.3945 732.41 48.4052C732.422 48.4099 732.443 48.4078 732.469 48.4006C732.583 48.46 732.698 48.5143 732.81 48.5663C733.37 48.8216 733.858 49.0504 733.729 49.6302C733.704 49.7383 733.747 49.844 733.82 49.9346C733.809 50.2973 733.796 50.6668 733.777 51.0291C733.542 51.1702 733.352 51.3116 733.214 51.4606C732.955 51.738 732.941 51.9366 732.927 52.1759C732.918 52.3575 732.906 52.5556 732.79 52.8103C732.601 53.2561 732.457 53.6879 732.447 54.1253C732.441 54.5744 732.48 55.0479 732.548 55.3927C732.581 55.5687 732.414 55.8349 732.253 56.0662C732.031 56.4055 731.829 56.6989 732.258 56.7185C732.394 56.7234 732.621 56.6987 732.841 56.6742C732.998 56.6566 733.151 56.6398 733.268 56.6357C733.258 56.7214 733.247 56.8053 733.235 56.8876C733.017 57.0966 732.802 57.3797 733.151 57.4927C733.138 57.5788 733.126 57.6632 733.113 57.7496C733.087 57.9304 733.059 58.1113 733.031 58.2917C733.022 58.3517 733.013 58.411 733.003 58.4693C733.003 58.4699 733.003 58.4704 733.003 58.471C732.985 58.5949 732.964 58.71 732.946 58.8336C732.937 58.8855 732.928 58.934 732.92 58.9863C732.9 59.118 732.879 59.2492 732.856 59.3764C732.845 59.4463 732.833 59.5149 732.821 59.5832C732.803 59.6971 732.784 59.8098 732.764 59.9217C732.733 60.105 732.7 60.287 732.668 60.47C732.662 60.5001 732.627 60.5383 732.568 60.5769C732.509 60.6155 732.431 60.6515 732.347 60.678C732.263 60.7045 732.179 60.72 732.108 60.7223C732.038 60.7245 731.989 60.713 731.967 60.6915C731.837 60.5596 731.709 60.4279 731.58 60.294C731.501 60.2126 731.421 60.1304 731.342 60.0463C731.294 59.9964 731.246 59.9458 731.198 59.8942C731.108 59.8011 731.017 59.7036 730.927 59.6053C730.891 59.5664 730.856 59.5309 730.821 59.4922C730.737 59.3991 730.656 59.3144 730.572 59.2206C730.572 59.2201 730.571 59.2196 730.571 59.2191C730.531 59.1761 730.49 59.1321 730.45 59.0873C730.327 58.9521 730.205 58.816 730.083 58.6792C730.017 58.605 729.954 58.5344 729.889 58.4597C729.852 58.4187 729.815 58.3746 729.78 58.3352C729.761 58.3139 729.742 58.2919 729.722 58.2697C729.27 57.7531 728.83 57.2349 728.4 56.7115C727.97 56.189 727.551 55.6617 727.141 55.13C726.732 54.6039 726.334 54.0758 725.941 53.533C725.129 52.4253 724.337 51.2896 723.579 50.1488C722.037 47.8339 720.624 45.4623 719.401 43.0438C719.137 42.5204 718.886 42.0021 718.64 41.4712C718.398 40.9503 718.163 40.4195 717.939 39.8912C717.871 39.7298 717.802 39.563 717.732 39.3906Z" fill="#F7C43C"/>
</svg>
